<svg xmlns="http://www.w3.org/2000/svg" xmlns:xlink="http://www.w3.org/1999/xlink" version="1.1" width="311.855pt" height="433.076pt" viewBox="0 0 311.855 433.076">
<defs>
<path id="font_0_5" d="M.0289917 .68359377V.6525879C.041992189 .6525879 .055999757 .6535797 .069992069 .6535797 .10499573 .6535797 .13598633 .6485901 .13598633 .61161807V.07493591C.13598633 .036972047 .10398865 .030975342 .070999149 .030975342 .055999757 .030975342 .040985109 .031967164 .0289917 .031967164V.0009765625H.33198548V.031967164C.31900025 .031967164 .30499269 .030975342 .2919922 .030975342 .25698854 .030975342 .22499085 .036972047 .22499085 .07493591V.61161807C.22499085 .6485901 .25898744 .6535797 .29299928 .6535797 .30599977 .6535797 .31999208 .6525879 .33198548 .6525879V.68359377H.0289917Z"/>
<path id="font_0_26" d="M.03199768 .43138124V.4003601H.04699707C.07998657 .4003601 .10998535 .39735414 .10998535 .35029603V.074020389C.10998535 .032974245 .08198547 .031967164 .037994386 .031967164H.03199768V.0009765625H.2579956V.031967164H.23199463C.20399475 .031967164 .17999268 .035980226 .17999268 .073013309V.25621034C.17999268 .3282776 .21699524 .42037965 .31599427 .42037965 .37998963 .42037965 .38598634 .3513031 .38598634 .30825807V.069000247C.38598634 .034973146 .35699464 .031967164 .32598878 .031967164H.30799867V.0009765625H.5339966V.031967164H.5089874C.48199464 .031967164 .45599366 .035980226 .45599366 .070007327V.28923036C.45599366 .32226563 .45498658 .35630799 .43899537 .38633729 .41600038 .43037416 .36499024 .4423828 .31900025 .4423828 .2579956 .4423828 .19499207 .4003601 .1749878 .34028626L.17399597 .4423828 .03199768 .43138124Z"/>
<path id="font_0_28" d="M.026992798 .43138124V.4003601H.04598999C.07598877 .4003601 .10499573 .39736939 .10499573 .35734559V-.12220764C.10499573-.15835572 .07899475-.16236878 .049987794-.16236878H.026992798V-.19335938H.25299073V-.16236878H.22898865C.19898987-.16236878 .1749878-.15835572 .1749878-.12220764L.17599488 .051239015C.19898987 .010223389 .25498963-.009765625 .2979889-.009765625 .42199708-.009765625 .5209961 .09625244 .5209961 .21730042 .5209961 .3373413 .42799378 .4423828 .31098939 .4423828 .2559967 .4423828 .20799256 .41838075 .17199707 .3773651V.4423828L.026992798 .43138124M.43598939 .19929505C.43099977 .12626648 .3919983 .021224976 .30099488 .01222229H.29499818C.2519989 .01222229 .21299744 .036239625 .18899536 .072250369 .18099976 .08325195 .1749878 .09326172 .1749878 .10725403V.27531434C.1749878 .28833009 .17399597 .30133058 .17399597 .31433106 .17399597 .36735536 .24198914 .41737367 .30099488 .41737367 .4019928 .41737367 .43699647 .28633119 .43699647 .21530152 .43699647 .21029663 .43699647 .20429993 .43598939 .19929505Z"/>
<path id="font_0_34" d="M.03199768 .430542V.39953614H.04598999C.07398987 .39953614 .102996829 .3975525 .10899353 .3675995 .10998535 .35661317 .10998535 .3466339 .10998535 .33566285V.13702393C.10998535 .1040802 .11099243 .073135379 .1289978 .044189454 .1559906 .0012512207 .21299744-.0107421879 .2599945-.0107421879 .30499269-.0107421879 .34599305 .009246826 .37098695 .046188356 .37799073 .056167604 .3849945 .06614685 .3880005 .078125L.3889923-.009750366 .5339966 .0012512207V.032211305H.5189972C.48599244 .032211305 .45599366 .035217287 .45599366 .0801239V.4423828L.30799867 .43136598V.39953614H.32299806C.35598756 .39953614 .38598634 .3965454 .38598634 .3496399V.16896057C.38598634 .09509277 .34799195 .013244629 .2649994 .013244629 .20899964 .013244629 .17999268 .02722168 .17999268 .13302613V.4423828L.03199768 .430542Z"/>
<path id="font_0_33" d="M.14898682 .6152344C.14898682 .54644778 .11999512 .421875 .017990113 .421875V.39987184H.10398865V.1421051C.10398865 .10914612 .10598755 .076171878 .12199402 .047195436 .14399719 .007232666 .19099427-.009765625 .23498535-.009765625 .31698609-.009765625 .33299256 .08216858 .33299256 .14511109V.18206787H.30799867C.30799867 .16708374 .30899049 .15209961 .30899049 .1361084 .30899049 .09214783 .29899598 .0152282719 .23999024 .0152282719 .18299866 .0152282719 .17399597 .08416748 .17399597 .12911988V.39987184H.31599427V.43066407H.17399597V.6152344H.14898682Z"/>
<path id="font_0_2" d="M.032989503 .68066409V.6496582C.04598999 .6496582 .05899048 .65065 .070999149 .65065 .10699463 .65065 .13598633 .6456604 .13598633 .6056824V.07495117C.13598633 .036972047 .102996829 .030975342 .068984989 .030975342 .055999757 .030975342 .04399109 .031967164 .032989503 .031967164V.0009765625H.60899356L.651001 .25889588H.6259918C.61099246 .16792298 .598999 .06796265 .48999024 .03996277 .45899964 .032974245 .4269867 .031967164 .394989 .031967164H.2669983C.24699402 .031967164 .22499085 .033966066 .22499085 .063964847V.3388672H.31698609C.35198976 .3388672 .3909912 .3358612 .4099884 .3048706 .42199708 .2838745 .4229889 .2568817 .4229889 .23190308V.22190857H.44799806V.48677064H.4229889V.47677613C.4229889 .42282105 .41099549 .3798523 .35198976 .3718567 .33299256 .3698578 .31399537 .3698578 .29499818 .3698578H.22499085V.61468508C.22499085 .6486511 .24598694 .6496582 .2669983 .6496582H.3869934C.44599916 .6496582 .5189972 .6496582 .55799868 .59669497 .58799746 .5567169 .59298709 .5037689 .598999 .4557953H.6239929L.59599307 .68066409H.032989503Z"/>
<path id="font_0_25" d="M.03199768 .43138124V.4003601H.04699707C.07998657 .4003601 .10998535 .39735414 .10998535 .35029603V.074020389C.10998535 .032974245 .08198547 .031967164 .037994386 .031967164H.03199768V.0009765625H.2579956V.031967164H.23199463C.20399475 .031967164 .17999268 .035980226 .17999268 .073013309V.25621034C.17999268 .32928468 .21998596 .42037965 .31599427 .42037965 .37998963 .42037965 .3869934 .35430909 .3869934 .30825807V.070007327C.3869934 .033966066 .35699464 .031967164 .32398988 .031967164H.30899049V.0009765625H.5349884V.031967164H.5089874C.48098756 .031967164 .45700074 .035980226 .45700074 .073013309V.25621034C.45700074 .32928468 .49699403 .42037965 .59298709 .42037965 .6569977 .42037965 .6639862 .35430909 .6639862 .30825807V.070007327C.6639862 .033966066 .6339874 .031967164 .6009979 .031967164H.58599856V.0009765625H.81199648V.031967164H.79100039C.7609863 .031967164 .73399356 .034973146 .73399356 .070007327V.2962494C.73399356 .33328248 .7319946 .36631776 .70799258 .4003601 .6819916 .43338014 .6389923 .4423828 .598999 .4423828 .5339966 .4423828 .48098756 .4043579 .45399476 .34629823 .43499757 .41737367 .3899994 .4423828 .32099916 .4423828 .25698854 .4423828 .19599915 .402359 .1749878 .34028626L.17399597 .4423828 .03199768 .43138124Z"/>
<path id="font_0_14" d="M.026992798 .6843109V.6533203H.04399109C.07499695 .6533203 .10499573 .65031436 .10499573 .6033325V.0012207031L.1289978 .0032196046 .14199829 .020233155 .1659851 .0622406H.16799927C.19198609 .014221191 .25099183-.009765625 .30099488-.009765625 .4249878-.009765625 .5209961 .09825134 .5209961 .21730042 .5209961 .33233644 .43299867 .4423828 .30499269 .4423828 .25299073 .4423828 .20698548 .41737367 .17199707 .37835694V.6953125L.026992798 .6843109M.43598939 .19229126C.43199159 .14427185 .4269867 .102264408 .39698792 .06524658 .37199403 .033233644 .33399964 .01222229 .2939911 .01222229 .25099183 .01222229 .21199036 .037231447 .18899536 .07324219 .18099976 .08425903 .1749878 .09326172 .1749878 .10826111V.27531434C.1749878 .28833009 .17399597 .30133058 .17399597 .31433106 .17399597 .37435914 .24699402 .42037965 .30299378 .42037965 .41099549 .42037965 .43699647 .29432679 .43699647 .21530152 .43699647 .20729065 .43699647 .20028687 .43598939 .19229126Z"/>
<path id="font_0_17" d="M.11199951 .23242188H.3999939C.41099549 .23242188 .41600038 .2394104 .41600038 .250412 .41600038 .35630799 .35099793 .4482422 .23899842 .4482422 .115997318 .4482422 .027999878 .33932496 .027999878 .22039795 .027999878 .12832642 .07899475 .04624939 .16699219 .006225586 .18998719-.003768921 .21699524-.009765625 .24198914-.009765625H.24499512C.32199098-.009765625 .38598634 .0332489 .41299439 .110305789 .4139862 .11331177 .4139862 .11730957 .4139862 .12031555 .4139862 .12731934 .4099884 .13232422 .40299989 .13232422 .3880005 .13232422 .38198854 .0993042 .37599183 .08828735 .35099793 .04425049 .30299378 .0152282719 .25099183 .0152282719 .21398926 .0152282719 .18199158 .036239625 .15499878 .06326294 .114990238 .109313968 .11199951 .17436219 .11199951 .23242188M.11299133 .25341798C.11299133 .33033753 .1539917 .426239 .23599243 .426239H.24099732C.33898927 .41723634 .33799745 .3133545 .34799195 .25341798H.11299133Z"/>
<path id="font_0_16" d="M.3039856 .6843109V.6533203H.31999208C.35499574 .6533203 .38198854 .6493225 .38198854 .5913391L.3809967 .38136292C.35699464 .42137147 .2999878 .4423828 .2539978 .4423828 .1309967 .4423828 .032989503 .3363495 .032989503 .21530152 .032989503 .10826111 .114990238-.009765625 .24699402-.009765625 .29899598-.009765625 .34599305 .0152282719 .3789978 .055236818V-.009765625L.5269928 .0012207031V.032226564H.5099945C.47898866 .032226564 .44898988 .035232545 .44898988 .08224487V.6953125L.3039856 .6843109M.116989139 .19128418V.20629883C.116989139 .2803192 .12599182 .35534669 .19499207 .4013672 .21499634 .41337586 .23799134 .42037965 .26098634 .42037965 .30999757 .42037965 .37998963 .38035584 .37998963 .31733705 .37998963 .30433656 .3789978 .2913208 .3789978 .2783203V.11225891C.3789978 .09925842 .37399293 .09025574 .36698915 .08024597 .34098817 .041244508 .2979889 .01222229 .25099183 .01222229 .17799378 .01222229 .13198853 .07925415 .12098694 .14826966 .11898804 .16227722 .11898804 .17729187 .116989139 .19128418Z"/>
<path id="font_0_22" d="M.036987306 .430542V.3995819H.055999757C.084991458 .3995819 .11099243 .3955841 .11099243 .34962464V.07292175C.11099243 .037963869 .09298706 .031967164 .032989503 .031967164V.0009765625H.24798584V.031967164H.22799683C.20199585 .031967164 .17799378 .034973146 .17799378 .06692505V.44154359L.036987306 .430542M.12098694 .6689453C.09599304 .66589358 .07598877 .64382937 .07598877 .61672976 .07598877 .5876312 .100997928 .5635376 .1289978 .5635376 .1559906 .5635376 .18199158 .58561709 .18199158 .61672976 .18199158 .64582827 .15699768 .6699219 .1289978 .6699219 .12599182 .66993716 .12399292 .6689453 .12098694 .6689453Z"/>
<path id="font_0_19" d="M.11898804 .02281189V.02180481C.07199097 .012802124 .027999878-.032165529 .027999878-.07914734 .027999878-.1730957 .17199707-.20507813 .24899292-.20507813 .33299256-.20507813 .47099305-.1750946 .47099305-.072143558 .47099305-.0071868898 .4249878 .03781128 .36499024 .05480957 .32899476 .06581116 .2919922 .06680298 .2539978 .06680298H.16299439C.1309967 .06982422 .10598755 .10205078 .10598755 .13427735V.13931275C.10699463 .15238953 .11399841 .17837525 .12399292 .17837525 .13699341 .17538452 .15098572 .16438294 .1659851 .15937805 .18399048 .15338135 .20399475 .15039063 .22299195 .15039063 .30499269 .15039063 .3849945 .21134949 .3849945 .29626466 .3849945 .3302307 .37098695 .37019349 .34399415 .3921814V.39317323C.37098695 .41316224 .39698792 .43113709 .43299867 .43113709 .43598939 .43113709 .43899537 .43113709 .44198609 .43014527 .43299867 .42414857 .4269867 .41714479 .4269867 .40415956 .4269867 .3881836 .43998719 .37419129 .45599366 .37419129 .47299195 .37419129 .4850006 .3881836 .4850006 .40415956 .4850006 .43113709 .46299745 .453125 .43499757 .453125 .3999939 .453125 .3659973 .4391327 .33999635 .41714479 .33699037 .41415406 .33299256 .41015626 .32899476 .40916444H.32798768C.32199098 .40916444 .31399537 .41714479 .30899049 .42015077 .2829895 .43437196 .25299073 .4423828 .22299195 .4423828 .14399719 .4423828 .05899048 .38737489 .05899048 .29638673 .05899048 .26338197 .07199097 .23338318 .09199524 .2073822 .09599304 .2033844 .102996829 .19837952 .102996829 .1933899 .102996829 .18838501 .09700012 .18338013 .09498596 .17938233 .08198547 .15937805 .07499695 .13427735 .07499695 .11010742 .07499695 .07888794 .08898926 .03781128 .11898804 .02281189M.08099365-.08413696V-.07614136C.08099365-.0231781 .1269989 .0078125 .18099976 .0078125H.25898744C.32199098 .0078125 .41799928-.0011901856 .41799928-.07814026 .41799928-.15110779 .31098939-.18208313 .24899292-.18208313 .18299866-.18208313 .09098816-.15209961 .08099365-.08413696M.1349945 .27638246V.28938294C.1349945 .3443756 .147995 .41838075 .22200012 .41838075 .28399659 .41838075 .30899049 .36038209 .30899049 .29638673 .30899049 .25538636 .30099488 .17437744 .22299195 .17437744 .19699097 .17437744 .17199707 .18638611 .15499878 .20838928 .13999939 .2283783 .13798523 .25238038 .1349945 .27638246Z"/>
<path id="font_0_9" d="M.37098695 .7060547C.28199769 .69303897 .20698548 .6640167 .147995 .5939636 .08699036 .52290347 .054992677 .4308319 .054992677 .33876039 .054992677 .16662598 .17799378-.021484375 .3899994-.021484375 .58599856-.021484375 .7220001 .15762329 .7220001 .34176637 .7220001 .52490237 .58699038 .70703127 .38598634 .70703127 .3809967 .7070465 .37599183 .7060547 .37098695 .7060547M.1579895 .3277588V.34477235C.1579895 .45985414 .18199158 .59095767 .29699708 .6569977 .32499696 .6720123 .35598756 .6810303 .3880005 .6810303 .47299195 .6810303 .54499819 .6209717 .58399966 .5409241 .61099246 .48587037 .61898806 .41682435 .61898806 .3587799 .61898806 .22668457 .58799746 .061553956 .43399049 .010513306 .41999818 .006515503 .40499879 .004501343 .3909912 .004501343 .24598694 .004501343 .1769867 .15362549 .1619873 .27471925 .1599884 .2927246 .1599884 .30973817 .1579895 .3277588Z"/>
<path id="font_0_1" d="M.03199768 .031967164V.0009765625H.24798584V.031967164C.21598816 .031967164 .1749878 .046951295 .17298889 .08190918 .17298889 .09190369 .17799378 .10089111 .18099976 .10987854 .19198609 .14285279 .20199585 .17581177 .21499634 .20777893 .21798706 .21676636 .21798706 .22875977 .23199463 .22875977H.45899964C.47099305 .22875977 .47200013 .21777344 .47599793 .20878601L.49699403 .1458435C.5069885 .11987305 .5249939 .08190918 .5249939 .060943605V.0569458C.5159912 .032974245 .47698976 .031967164 .44799806 .031967164H.44198609V.0009765625H.71699526V.031967164H.6879883C.6649933 .031967164 .6409912 .033966066 .6289978 .045959474 .6179962 .057937623 .6139984 .074920658 .60798647 .089904788 .5569916 .23875427 .5059967 .38876344 .45298768 .53778079 .43499757 .5897827 .41099549 .6447754 .397995 .6977844 .3939972 .7107849 .3880005 .7167969 .37399293 .7167969 .35398866 .7167969 .34999085 .6957855 .34399415 .67578127 .28799439 .5067749 .22599793 .33976747 .16899109 .17181397L.147995 .11187744C.14199829 .09390259 .13598633 .075927738 .12199402 .061935426 .09899902 .037963869 .06399536 .031967164 .03199768 .031967164M.23298645 .25976563 .34498597 .58477786 .45799256 .25976563H.23298645Z"/>
<path id="font_0_13" d="M.7220001 .12155151H.69699099C.69699099 .061523439 .644989 .009506226 .58499148 .009506226H.5779877C.526001 .013504028 .47200013 .06652832 .44999696 .09553528 .44898988 .09654236 .44898988 .09753418 .44898988 .09854126 .44898988 .105545047 .45999146 .11454773 .46398927 .11955261 .5059967 .1745758 .54100039 .2335968 .57699587 .29360963 .59199526 .32061769 .6069946 .3506317 .6319885 .370636 .6589966 .39164735 .69299319 .3996582 .72698977 .3996582V.43066407H.5079956V.3996582C.5359955 .3996582 .5779877 .38964845 .5779877 .35664369V.35263063C.57598879 .33163453 .55400088 .30361939 .54100039 .28260804 .5069885 .22659302 .47200013 .16456604 .42900086 .11854553 .4249878 .1265564 .41799928 .13356018 .41299439 .14056397L.38598634 .1765747C.34498597 .23458863 .30099488 .29560853 .2749939 .3616333 .27198792 .36764527 .2659912 .37664796 .2659912 .38365174 .2669983 .39164735 .2769928 .3996582 .28199769 .4046631 .32499696 .45266725 .3869934 .5196991 .3869934 .59173586 .3869934 .6457672 .3619995 .7167969 .2999878 .7167969 .22200012 .7167969 .16799927 .6457672 .1619873 .57373049V.56073C.1619873 .49168397 .1769867 .42765809 .19898987 .36264039 .19999695 .3596344 .20098877 .35664369 .20098877 .35464479 .20098877 .3426361 .16799927 .31562806 .1519928 .2986145 .102996829 .24659729 .041992189 .20057678 .041992189 .123550418 .041992189 .030517579 .14099121-.021484375 .22200012-.021484375 .27999879-.021484375 .33499146-.00048828127 .37998963 .03451538L.394989 .046524049C.397995 .04852295 .40098573 .05152893 .4039917 .05152893 .41099549 .05152893 .42099 .039520265 .42999269 .03352356 .47099305 .0015106201 .5239868-.021484375 .5779877-.021484375 .6399994-.021484375 .7220001 .021514893 .7220001 .12155151M.21299744 .32962037C.21998596 .29962159 .24398804 .26359559 .2619934 .23458863 .28599549 .19657898 .31199647 .15956116 .33999635 .124557498 .35398866 .107543949 .36799623 .088531497 .3849945 .073532108 .34098817 .03552246 .2889862 .009506226 .22898865 .009506226 .1579895 .009506226 .12599182 .091537479 .12599182 .15756226 .12599182 .22958374 .1539917 .27059938 .21299744 .32962037M.2559967 .4096527C.23799134 .46366883 .22599793 .5207062 .22599793 .5777283 .22599793 .6177521 .24099732 .6947937 .29899598 .6947937H.30499269C.35398866 .6897888 .36099244 .6137543 .36099244 .58872988 .36099244 .5236969 .2999878 .45866395 .2559967 .4096527Z"/>
<path id="font_0_8" d="M.032989503 .68359377V.6525879C.04699707 .6525879 .06298828 .6535797 .07899475 .6535797 .10899353 .6535797 .13598633 .650589 .13598633 .63560488V.106918338C.13598633 .036972047 .07798767 .031967164 .032989503 .031967164V.0009765625H.2669983V.031967164C.22399903 .031967164 .16299439 .037963869 .16299439 .10491943 .16299439 .11392212 .1639862 .123916629 .1639862 .13191223V.62561038C.17999268 .60762026 .19299317 .5856323 .20599365 .5656433 .32899476 .38674928 .44898988 .20585633 .57199099 .02696228 .57899478 .016967774 .58599856 .0009765625 .59999087 .0009765625 .6100006 .0009765625 .61299136 .007965088 .61299136 .016967774V.58062747C.61299136 .64759829 .6729889 .6525879 .71598818 .6525879V.68359377H.48199464V.6525879C.5249939 .6525879 .58499148 .64759829 .58499148 .5816345V.15289307L.22299195 .6815796 .20498657 .68359377H.032989503Z"/>
<path id="font_0_27" d="M.23498535 .4482422C.10899353 .43522645 .027999878 .3292389 .027999878 .21322632 .027999878 .100234989 .116989139-.009765625 .25-.009765625 .36999513-.009765625 .47099305 .08822632 .47099305 .2142334 .47099305 .33320619 .3809967 .44921876 .24798584 .44921876 .24398804 .449234 .23899842 .4482422 .23498535 .4482422M.11199951 .19023133V.23423767C.11199951 .31021119 .13598633 .4262085 .24899292 .4262085 .32998658 .4262085 .37599183 .35821534 .3849945 .2822113 .3869934 .2602234 .3869934 .23921204 .3869934 .21722412 .3869934 .15222168 .37998963 .07122803 .31599427 .034225465 .29599 .021224976 .27398683 .0152282719 .25099183 .0152282719 .17799378 .0152282719 .1269989 .07221985 .115997318 .15022278 .11399841 .16322327 .11399841 .17721558 .11199951 .19021607V.19023133Z"/>
<path id="font_0_31" d="M.026992798 .43138124V.4003601H.041992189C.07499695 .4003601 .10499573 .39735414 .10499573 .35029603V.074020389C.10499573 .032974245 .07699585 .031967164 .032989503 .031967164H.026992798V.0009765625H.2689972V.031967164C.25698854 .031967164 .24299622 .030975342 .23098755 .030975342 .19898987 .030975342 .17199707 .035980226 .17199707 .073013309V.20614624C.17199707 .2912445 .19198609 .42037965 .2899933 .42037965 .2939911 .42037965 .29699708 .42037965 .30099488 .41937257V.41836549C.28599549 .41236878 .27799989 .39634706 .27799989 .38032533 .27799989 .35731507 .29299928 .34129334 .31599427 .33728028 .34498597 .33728028 .3639984 .3553009 .3639984 .38032533 .3639984 .42037965 .32598878 .4423828 .2899933 .4423828 .23098755 .4423828 .17799378 .38934327 .16799927 .33528138L.16699219 .4423828 .026992798 .43138124Z"/>
<path id="font_0_7" d="M.036987306 .68359377V.6525879C.049987794 .6525879 .06298828 .6535797 .07499695 .6535797 .11099243 .6535797 .13999939 .6485901 .13999939 .60861209V.10292053C.13999939 .037963869 .07998657 .031967164 .036987306 .031967164V.0009765625H.2709961V.031967164C.22599793 .031967164 .16699219 .037963869 .16699219 .106918338 .16699219 .11592102 .16799927 .12591553 .16799927 .13490296L.16899109 .6465912C.17399597 .62561038 .18399048 .60562136 .19198609 .5856323 .2619934 .40074159 .33399964 .21685791 .4059906 .033966066 .4099884 .022964478 .4149933 .0009765625 .42999269 .0009765625H.43099977C.44599916 .0029754639 .44999696 .025970459 .45498658 .037963869 .5269928 .22485352 .60198977 .41374208 .6729889 .60162356 .6799927 .61860659 .6879883 .63560488 .69299319 .6535797L.69400027 .076934818C.69400027 .036972047 .6619873 .030975342 .6299896 .030975342 .6159973 .030975342 .6029968 .031967164 .59098818 .031967164V.0009765625H.8779907V.031967164C.8659973 .031967164 .8529968 .030975342 .84098818 .030975342 .80599978 .030975342 .7749939 .035964967 .7749939 .07493591V.60861209C.7749939 .64759829 .8069916 .6535797 .84098818 .6535797 .85398867 .6535797 .86698916 .6525879 .8779907 .6525879V.68359377H.70399478L.68499758 .68058779 .6749878 .6645813 .45799256 .10192871 .23999024 .6645813 .22999573 .68058779 .21099854 .68359377H.036987306Z"/>
<path id="font_0_24" d="M.032989503 .68429568V.6532898H.04798889C.084991458 .6532898 .11099243 .64927676 .11099243 .6012573V.0960083C.11099243 .08900452 .11199951 .08200073 .11199951 .07398987 .11199951 .035964967 .084991458 .031967164 .056991579 .031967164H.032989503V.0009765625H.2559967V.031967164H.23098755C.20199585 .031967164 .17799378 .035964967 .17799378 .07499695V.6953125L.032989503 .68429568Z"/>
<path id="font_0_21" d="M.010986328 .24511719V.18611145H.2769928V.24511719H.010986328Z"/>
<path id="font_0_4" d="M.032989503 .68359377V.6525879C.04598999 .6525879 .05899048 .6535797 .070999149 .6535797 .10699463 .6535797 .13598633 .6485901 .13598633 .6086273V.07495117C.13598633 .036972047 .102996829 .030975342 .068984989 .030975342 .055999757 .030975342 .04399109 .031967164 .032989503 .031967164V.0009765625H.32798768V.031967164H.2939911C.2519989 .031967164 .22499085 .033966066 .22499085 .07594299V.3408203H.5239868V.07594299C.5239868 .035964967 .48999024 .031967164 .45399476 .031967164H.42099V.0009765625H.71598818V.031967164C.70399478 .031967164 .69099429 .030975342 .67900088 .030975342 .6439972 .030975342 .61299136 .035964967 .61299136 .07495117V.6086273C.61299136 .64759829 .644989 .6535797 .67900088 .6535797 .69200137 .6535797 .7049866 .6525879 .71598818 .6525879V.68359377H.42099V.6525879H.45498658C.49699403 .6525879 .5239868 .650589 .5239868 .6086273V.3718109H.22499085V.6086273C.22499085 .6485901 .25898744 .6525879 .29499818 .6525879H.32798768V.68359377H.032989503Z"/>
<path id="font_0_12" d="M.11199951 .3812256C.13699341 .41223146 .18099976 .426239 .21798706 .426239 .2919922 .426239 .32499696 .3592224 .32499696 .288208V.26220704C.20999146 .26220704 .040985109 .22619629 .040985109 .095214847V.08721924C.04899597 .010223389 .1459961-.009765625 .20298767-.009765625 .2539978-.009765625 .31900025 .024230957 .33198548 .07522583H.33299256C.33898927 .032226564 .3659973-.004776001 .41099549-.004776001 .45199586-.004776001 .48799134 .02822876 .49299623 .07322693V.14620972H.46798707V.095214847C.46798707 .068222049 .46299745 .02722168 .43199159 .02722168 .3999939 .02722168 .394989 .066223148 .394989 .09321594V.26020814C.394989 .27320863 .3959961 .28520204 .3959961 .29821778 .3959961 .39523316 .30499269 .4482422 .22200012 .4482422 .15899658 .4482422 .069992069 .41723634 .069992069 .33721925 .069992069 .30822755 .09098816 .28923036 .116989139 .28923036 .14498902 .28923036 .1619873 .31123353 .1619873 .3352356 .1619873 .3642273 .13899231 .38124085 .11199951 .38124085V.3812256M.32499696 .24121094V.14021302C.32499696 .07122803 .2769928 .016220093 .21199036 .01222229H.20799256C.16099549 .01222229 .11898804 .049224855 .11898804 .097213748V.10221863C.12599182 .2032013 .23899842 .23820496 .32499696 .24121094Z"/>
<path id="font_0_32" d="M.17599488 .4482422C.13899231 .44422914 .099990848 .4372406 .070999149 .41223146 .04699707 .39123536 .032989503 .35723878 .032989503 .32522584 .032989503 .15423584 .31098939 .25123597 .31098939 .10122681 .31098939 .040222169 .2559967 .01222229 .20098877 .01222229 .125 .01222229 .07398987 .066223148 .05999756 .15222168 .057998659 .16122437 .056991579 .17022705 .04499817 .17022705 .036987306 .17022705 .032989503 .16423035 .032989503 .15722656V-.00077819827C.033996583-.0057678224 .036987306-.008773804 .041992189-.009765625H.04399109C.05999756-.009765625 .07598877 .02722168 .08799744 .030227662H.08898926C.09700012 .030227662 .12399292 .0052337648 .14498902-.0017700195 .1619873-.0077667238 .17999268-.009765625 .19799805-.009765625 .2809906-.009765625 .3600006 .034225465 .3600006 .12623596 .3600006 .19223023 .31199647 .24623108 .24598694 .26322938 .18399048 .28022767 .08198547 .28022767 .08198547 .3532257 .08198547 .4142151 .14898682 .42921449 .19299317 .42921449 .24198914 .42921449 .30999757 .40220643 .30999757 .3162079 .30999757 .30722047 .31098939 .2992096 .32199098 .2992096 .33198548 .2992096 .33599855 .30722047 .33599855 .31721498 .33599855 .32221986 .33499146 .32720948 .33499146 .33120729V.4342041C.33499146 .44023133 .33198548 .4482422 .32398988 .4482422 .30799867 .4482422 .2979889 .42323304 .2869873 .42323304H.28599549C.27799989 .42323304 .2619934 .43623353 .25 .44023133 .23199463 .44621278 .21199036 .44921876 .19299317 .44921876 .18699646 .449234 .18199158 .4482422 .17599488 .4482422Z"/>
<path id="font_0_23" d="M.026992798 .6842804V.65319827H.04399109C.07598877 .65319827 .10499573 .64920046 .10499573 .6010742V.09591675C.10499573 .08892822 .10598755 .08192444 .10598755 .07392883 .10598755 .035964967 .07899475 .031967164 .050994874 .031967164H.026992798V.0009765625H.24699402V.031967164H.22399903C.19400025 .031967164 .16899109 .035964967 .16899109 .07392883V.16685486C.16899109 .1878357 .20899964 .21582031 .23298645 .23379517 .24198914 .21681214 .25498963 .201828 .2659912 .18583679 .2899933 .15286255 .31399537 .120895389 .33599855 .08792114 .34199525 .078933719 .34999085 .06593323 .34999085 .053955079 .34999085 .035964967 .32998658 .031967164 .31498719 .031967164V.0009765625H.5109863V.031967164C.49398805 .031967164 .47499085 .031967164 .45899964 .03996277 .43598939 .052947999 .41999818 .076934818 .4059906 .09791565 .3809967 .1328888 .35598756 .16885376 .32998658 .2038269L.2939911 .254776C.2899933 .25978089 .2829895 .2687683 .2829895 .2727661V.274765C.2829895 .28175355 .31298829 .30374146 .32699586 .31472779 .37298585 .35469056 .4249878 .3996582 .4889984 .3996582V.43066407H.30699159V.3996582C.32199098 .3996582 .33499146 .38867188 .33499146 .37467958 .33499146 .3447113 .28799439 .31472779 .26098634 .29275514 .23098755 .2667694 .20199585 .24079895 .17199707 .21582031V.6953125L.026992798 .6842804Z"/>
<path id="font_0_3" d="M.032989503 .68066409V.6496582C.04598999 .6496582 .05899048 .65065 .070999149 .65065 .10699463 .65065 .13598633 .6456604 .13598633 .60572817V.07499695C.13598633 .036972047 .102996829 .030975342 .068984989 .030975342 .055999757 .030975342 .04399109 .031967164 .032989503 .031967164V.0009765625H.35299684V.031967164C.33898927 .031967164 .32199098 .030975342 .30499269 .030975342 .25498963 .030975342 .22499085 .034973146 .22499085 .08100891V.32617188H.30899049C.34298707 .32617188 .38398744 .3241577 .40299989 .2951355 .4169922 .27313233 .41799928 .24511719 .41799928 .2190857V.20909119H.44299317V.4739685H.41799928V.463974C.41799928 .4120636 .4079895 .36714173 .34700013 .35916139 .32899476 .35716249 .30999757 .35716249 .2919922 .35716249H.22499085V.61372378C.22499085 .6476593 .24499512 .6496582 .2659912 .6496582H.3829956C.43499757 .6496582 .49798585 .6476593 .5359955 .60873416 .57398989 .5688019 .5779877 .50790408 .58499148 .45599366H.6100006L.58200076 .68066409H.032989503Z"/>
<path id="font_0_35" d="M.017990113 .43066407V.3996582H.032989503C.084991458 .3996582 .08699036 .37768556 .11199951 .3067932 .13699341 .23788452 .16299439 .16897583 .18699646 .10006714L.21699524 .016189576C.22099304 .005203247 .22399903-.008773804 .23799134-.009765625H.23999024C.2619934-.009765625 .27598573 .057128908 .2889862 .09008789 .30699159 .14302063 .32598878 .19593811 .34599305 .24887085 .35099793 .2628479 .35699464 .27682496 .3600006 .29081727H.36099244C.3639984 .27682496 .36999513 .2628479 .375 .24887085L.4039917 .16798401C.42199708 .11605835 .44198609 .06512451 .45999146 .013198853 .46398927 .0022125245 .46798707-.009765625 .48199464-.009765625 .5039978-.009765625 .5209961 .06112671 .5329895 .097076419L.58999636 .25585938C.61299136 .31877137 .6269989 .3996582 .7029877 .3996582V.43066407H.5379944V.3996582C.56399539 .39866639 .59199526 .38467408 .59498599 .35671998 .59498599 .3287506 .5779877 .2967987 .56900027 .2708435 .5529938 .22789002 .5379944 .18495178 .522995 .14201355 .5149994 .12104797 .5049896 .09907532 .5 .07710266H.49899293C.49398805 .10107422 .48098756 .13102722 .47099305 .1559906 .44799806 .22090149 .42399598 .28482057 .4019928 .35072328 .39898683 .3577118 .3959961 .3657074 .3959961 .373703V.37768556C.40098573 .3996582 .43399049 .3996582 .45399476 .3996582V.43066407H.2599945V.3996582H.27799989C.31698609 .3996582 .32598878 .38467408 .33898927 .35072328 .34098817 .34373475 .34599305 .3347473 .34599305 .32676698 .34498597 .31777955 .33999635 .30778504 .33699037 .2998047L.27999879 .14102173C.27398683 .1240387 .2689972 .10707092 .2619934 .09107971 .25 .11705017 .24198914 .14601135 .23199463 .17297364 .21699524 .21591187 .20098877 .2588501 .18598938 .30178834L.16799927 .35272218C.1659851 .35871888 .1619873 .3657074 .1619873 .37269593 .1619873 .39866639 .19898987 .3996582 .22099304 .3996582V.43066407H.017990113Z"/>
<path id="font_0_6" d="M.032989503 .68359377V.6525879C.04598999 .6525879 .05899048 .6535797 .070999149 .6535797 .10699463 .6535797 .13598633 .6485901 .13598633 .60861209V.07493591C.13598633 .036972047 .102996829 .030975342 .068984989 .030975342 .055999757 .030975342 .04399109 .031967164 .032989503 .031967164V.0009765625H.55400088L.58200076 .25883485H.5569916C.548996 .17788697 .5359955 .061950685 .42099 .03996277 .3919983 .031967164 .36299134 .031967164 .33399964 .031967164H.2599945C.23999024 .033966066 .22499085 .038970949 .22499085 .06594849V.60861209C.22499085 .6485901 .26098634 .6535797 .2939911 .6535797 .30499269 .6535797 .31498719 .6525879 .32398988 .6525879H.35299684V.68359377H.032989503Z"/>
<path id="font_0_11" d="M.115997318 .048538209C.1789856-.00048828127 .22799683-.021484375 .30499269-.021484375 .42399598-.021484375 .49899293 .08557129 .49899293 .18765259 .49899293 .27072145 .45199586 .34777833 .37199403 .3808136 .31098939 .40582276 .23498535 .40382386 .18199158 .43585206 .14199829 .46087647 .11898804 .50390627 .11898804 .5479431 .11898804 .6269989 .18598938 .67803958 .25698854 .67803958 .35598756 .67803958 .4249878 .59898379 .44099427 .49890138 .44400025 .48388673 .44099427 .4568634 .45899964 .4568634 .46998597 .4568634 .47099305 .46588136 .47099305 .47488404V.6920471C.47099305 .6990509 .46899415 .7060547 .46099855 .7060547 .44599916 .7060547 .43499757 .67803958 .4269867 .66503909 .42099 .6560364 .4139862 .6460266 .4099884 .63601687 .36898805 .6770477 .32199098 .7060547 .25498963 .7060547 .15699768 .7060547 .054992677 .63801577 .054992677 .51091006 .054992677 .40682984 .1309967 .33877564 .22898865 .31774903 .25 .3127594 .269989 .30674745 .29100038 .30174256 .34700013 .2887268 .40299989 .27471925 .4269867 .20266724 .43199159 .18765259 .43499757 .17164612 .43499757 .15663147 .43499757 .08157349 .38398744 .009506226 .2999878 .009506226 .19999695 .009506226 .102996829 .06254578 .08299255 .17764282 .08198547 .18664551 .08099365 .19665528 .07998657 .20567322V.212677C.07998657 .22268677 .07499695 .22767639 .066986087 .22767639 .056991579 .22767639 .054992677 .21968079 .054992677 .212677V-.0074920656C.054992677-.01449585 .056991579-.021484375 .06498718-.021484375 .07998657-.021484375 .09098816 .006515503 .09899902 .019515992 .10499573 .028518677 .11199951 .038528444 .115997318 .048538209Z"/>
<path id="font_0_18" d="M.11099243 .43066407H.032989503V.3996582H.11099243V.06893921C.11099243 .034973146 .08198547 .031967164 .051986696 .031967164H.033996583V.0009765625H.2749939V.031967164H.24299622C.22099304 .031967164 .19799805 .032974245 .18598938 .04396057 .17799378 .052947999 .17799378 .06593323 .17799378 .077926639V.3996582H.2919922V.43066407H.1749878V.56185916C.1749878 .61694338 .21299744 .6840515 .2669983 .6840515 .2769928 .6840515 .29100038 .68203738 .29899598 .6760254 .27999879 .6710205 .2689972 .6529999 .2689972 .63397219 .2689972 .6079254 .2889862 .5908966 .31298829 .5908966 .33898927 .5908966 .35798646 .6109314 .35798646 .6329651 .35798646 .68104556 .30799867 .7060547 .2669983 .7060547 .17599488 .7060547 .11099243 .634964 .11099243 .53782656V.43066407Z"/>
<path id="font_0_36" d="M.016998291 .43066407V.3996582H.036987306C.08898926 .3996582 .102996829 .37867738 .12599182 .34970094L.21998596 .22680664C.22399903 .22280884 .23199463 .21481323 .23199463 .20881653 .23098755 .2038269 .22299195 .1958313 .21998596 .1918335 .1599884 .12289429 .115997318 .031967164 .011993408 .031967164V.0009765625H.19099427V.031967164C.17199707 .031967164 .1619873 .049957277 .1619873 .063934329 .1619873 .08392334 .1769867 .09791565 .18899536 .11289978 .20098877 .12788391 .21299744 .14387512 .22599793 .15885926 .23399353 .16885376 .24299622 .17784119 .24899292 .18884278 .27398683 .16186524 .29499818 .12988281 .31698609 .10090637L.33599855 .075927738C.33999635 .07093811 .34700013 .063934329 .34700013 .0569458 .34700013 .04095459 .32499696 .031967164 .31098939 .031967164V.0009765625H.5159912V.031967164H.49798585C.48098756 .031967164 .46199037 .032974245 .44699098 .04095459 .42900086 .049957277 .4169922 .06893921 .40499879 .08392334 .37199403 .12788391 .33699037 .17184448 .3039856 .21582031L.29499818 .22779846C.29299928 .22979737 .29100038 .23280335 .2899933 .23579407 .2899933 .24179077 .29699708 .24778748 .2999878 .25178529L.33099366 .28974916C.34899903 .31173707 .36499024 .33570863 .38598634 .35569764 .4169922 .383667 .45599366 .3996582 .49798585 .3996582V.43066407H.31999208V.3996582C.33999635 .39466859 .34799195 .38467408 .34799195 .36868287 .34799195 .33970643 .31599427 .31373597 .29899598 .29075624 .2919922 .28175355 .2769928 .2607727 .27198792 .2607727 .2659912 .2607727 .2519989 .28375245 .24299622 .29473878 .22099304 .3227234 .18598938 .35868836 .18598938 .3756714 .18598938 .39067079 .20799256 .39865113 .22099304 .3996582V.43066407H.016998291Z"/>
<path id="font_0_29" d="M.31698609 .75C.30299378 .74497988 .2849884 .72499087 .272995 .7129822 .1499939 .5899811 .099990848 .4199829 .099990848 .25097657 .099990848 .06997681 .15899658-.123031619 .30599977-.24102783 .31098939-.24403382 .31698609-.24902344 .32299806-.24902344 .32899476-.24902344 .33198548-.24302674 .33198548-.23902893 .33198548-.22802735 .30499269-.20703125 .2939911-.19403076 .19099427-.07102966 .15899658 .0929718 .15899658 .24998474 .15899658 .41497804 .19198609 .5959778 .31599427 .71998599 .32199098 .72598269 .33198548 .73298647 .33198548 .74098208 .33198548 .7469635 .32699586 .75097659 .32099916 .75097659 .31999208 .7509918 .31799317 .75 .31698609 .75Z"/>
<path id="font_0_20" d="M.03199768 .6843109V.6533203H.04699707C.083999637 .6533203 .10998535 .6493225 .10998535 .6013336V.09603882C.10998535 .089035037 .11099243 .08201599 .11099243 .074020389 .11099243 .035980226 .083999637 .031967164 .055999757 .031967164H.03199768V.0009765625H.2579956V.031967164H.23199463C.20399475 .031967164 .17999268 .035980226 .17999268 .073013309V.25621034C.17999268 .3282776 .21699524 .42037965 .31599427 .42037965 .37998963 .42037965 .38598634 .3513031 .38598634 .30825807V.069000247C.38598634 .034973146 .35699464 .031967164 .32598878 .031967164H.30799867V.0009765625H.5339966V.031967164H.5089874C.48199464 .031967164 .45599366 .035980226 .45599366 .070007327V.28923036C.45599366 .32226563 .45498658 .3553009 .43998719 .38534547 .41600038 .42938233 .3659973 .4423828 .31999208 .4423828 .2619934 .4423828 .19699097 .40335084 .17799378 .3473053L.1769867 .6953125 .03199768 .6843109Z"/>
<path id="font_0_30" d="M.06199646 .7499695C.057998659 .7479706 .055999757 .7449646 .055999757 .7419739 .055999757 .7299652 .07899475 .7129669 .08999634 .7009735 .19699097 .57696536 .22898865 .40797425 .22898865 .24996948 .22898865 .088974 .19599915-.09402466 .07598877-.21403504 .068984989-.22102356 .055999757-.23103333 .055999757-.23902893 .055999757-.24403382 .06098938-.24902344 .066986087-.24902344H.067993167C.07998657-.24702454 .099990848-.22602844 .11199951-.21403504 .23799134-.088027957 .28799439 .081970218 .28799439 .25196839 .28799439 .43597413 .22799683 .6189728 .08198547 .7429657 .07699585 .7459717 .07199097 .75097659 .06599426 .75097659 .06498718 .75097659 .06399536 .75097659 .06199646 .7499695Z"/>
<path id="font_0_10" d="M.033996583 .68359377V.6525879C.04699707 .6525879 .05999756 .6535797 .07199097 .6535797 .10798645 .6535797 .13699341 .6485901 .13699341 .60861209V.07493591C.13699341 .036972047 .10398865 .030975342 .069992069 .030975342 .056991579 .030975342 .04499817 .031967164 .033996583 .031967164V.0009765625H.32899476V.031967164H.29499818C.25299073 .031967164 .22599793 .033966066 .22599793 .07594299V.31677247H.4099884C.5049896 .323761 .6239929 .38174439 .6239929 .49667359 .6239929 .60261538 .5189972 .67259219 .41799928 .68258669 .40299989 .68356326 .3889923 .6845703 .37399293 .6845703 .35398866 .6845856 .33399964 .68359377 .31498719 .68359377H.033996583M.22299195 .34277345V.62060549C.22299195 .647583 .23999024 .650589 .25898744 .6525879H.33399964C.3899994 .6525879 .45498658 .650589 .49398805 .6036072 .5179901 .57463076 .5209961 .5346527 .5209961 .4986725 .5209961 .46269227 .5179901 .42471314 .49598695 .3947296 .46199037 .35176087 .4039917 .34277345 .35299684 .34277345H.22299195Z"/>
<path id="font_1_1" d="M.7559967 .577652C.7659912 .61763 .7839966 .64860537 .8639984 .6516113 .86898806 .6516113 .8809967 .65260317 .8809967 .6716156 .8809967 .6726074 .8809967 .6826172 .8679962 .6826172 .83499148 .6826172 .7999878 .6796112 .7669983 .6796112 .73298647 .6796112 .69799807 .6826172 .6649933 .6826172 .6589966 .6826172 .6469879 .6826172 .6469879 .6626129 .6469879 .6516113 .6569977 .6516113 .6649933 .6516113 .7220001 .65060427 .73298647 .6296234 .73298647 .6076355 .73298647 .6046295 .73098757 .5896454 .7299957 .5866394L.6179962 .141922 .39698792 .66360476C.3889923 .6816101 .3880005 .6826172 .36499024 .6826172H.23098755C.21099854 .6826172 .20199585 .6826172 .20199585 .6626129 .20199585 .6516113 .21099854 .6516113 .22999573 .6516113 .23498535 .6516113 .2979889 .6516113 .2979889 .64260867L.1639862 .10594177C.1539917 .065963748 .13699341 .033996583 .055999757 .0309906 .049987794 .0309906 .038986207 .02999878 .038986207 .010986328 .038986207 .0039978029 .04399109 0 .051986696 0 .083999637 0 .11898804 .0029907227 .1519928 .0029907227 .18598938 .0029907227 .22200012 0 .25498963 0 .2599945 0 .272995 0 .272995 .019989014 .272995 .02999878 .2639923 .0309906 .25299073 .0309906 .19499207 .032989503 .18699646 .054977418 .18699646 .07496643 .18699646 .081954959 .18798828 .08695984 .19099427 .09794617L.32299806 .6256256C.32699586 .6196289 .32699586 .61763 .33198548 .6076355L.58099368 .018997193C.58799746 .0019989014 .59098818 0 .59999087 0 .61099246 0 .61099246 .0029907227 .6159973 .020996094L.7559967 .577652Z"/>
<path id="font_2_1" d="M.3889923 .27801515 .18899536 .47720338C.1769867 .48919679 .1749878 .49121095 .16699219 .49121095 .15699768 .49121095 .14698792 .48220826 .14698792 .47120667 .14698792 .46420289 .14898682 .46218873 .1599884 .45118714L.3600006 .24998474 .1599884 .048797609C.14898682 .03779602 .14698792 .03578186 .14698792 .028778077 .14698792 .01777649 .15699768 .0087890629 .16699219 .0087890629 .1749878 .0087890629 .1769867 .010787964 .18899536 .022781373L.3880005 .2219696 .59498599 .014785767C.5970001 .0137786869 .60398867 .0087890629 .6100006 .0087890629 .621994 .0087890629 .6299896 .01777649 .6299896 .028778077 .6299896 .030776978 .6299896 .03479004 .6269989 .039794923 .6259918 .041793825 .46699525 .19894409 .4169922 .24998474L.59999087 .4331665C.6049957 .43917848 .6199951 .45217896 .625 .45819093 .6259918 .46018983 .6299896 .46420289 .6299896 .47120667 .6299896 .48220826 .621994 .49121095 .6100006 .49121095 .60198977 .49121095 .59799197 .48719789 .58699038 .4761963L.3889923 .27801515Z"/>
<path id="font_0_15" d="M.35899354 .38723756C.33299256 .38523866 .31199647 .36923219 .31199647 .3412323 .31199647 .3142395 .33099366 .29522706 .35798646 .29522706 .3880005 .29522706 .4039917 .31723023 .4039917 .3452301V.3512268C.3939972 .4242401 .30899049 .4482422 .25099183 .4482422 .1289978 .4482422 .032989503 .3412323 .032989503 .21723938 .032989503 .10423279 .12098694-.009765625 .25-.009765625 .31599427-.009765625 .3809967 .026229859 .4079895 .096221927 .4099884 .10223389 .4149933 .11123657 .4149933 .1182251 .4149933 .12522888 .4099884 .13023377 .40299989 .13023377 .3880005 .13023377 .3789978 .09222412 .37199403 .07922363 .34799195 .040222169 .30699159 .016220093 .2619934 .0152282719 .15499878 .0152282719 .12199402 .1222229 .116989139 .20123291V.21322632C.116989139 .29322816 .13598633 .41323854 .24598694 .42323304H.2539978C.29100038 .42323304 .32998658 .41223146 .35899354 .38723756Z"/>
</defs>
<path transform="matrix(1,0,0,-1,56.985,363.828)" d="M-19.13417 182.9787H68.74109C73.43785 182.9787 77.24521 179.17133 77.24521 174.47458V45.49649C77.24521 40.79973 73.43785 36.99237 68.74109 36.99237H-19.13417C-23.83093 36.99237-27.6383 40.79973-27.6383 45.49649V174.47458C-27.6383 179.17133-23.83093 182.9787-19.13417 182.9787Z" fill="#f3f3f4"/>
<path transform="matrix(1,0,0,-1,56.985,363.828)" stroke-width="1.32874" stroke-linecap="butt" stroke-miterlimit="10" stroke-linejoin="miter" fill="none" stroke="#000000" d="M-19.13417 182.9787H68.74109C73.43785 182.9787 77.24521 179.17133 77.24521 174.47458V45.49649C77.24521 40.79973 73.43785 36.99237 68.74109 36.99237H-19.13417C-23.83093 36.99237-27.6383 40.79973-27.6383 45.49649V174.47458C-27.6383 179.17133-23.83093 182.9787-19.13417 182.9787Z"/>
<path transform="matrix(1,0,0,-1,56.985,363.828)" d="M115.51314 266.6017H203.38843C208.08519 266.6017 211.89257 262.79435 211.89257 258.09757V45.49649C211.89257 40.79973 208.08519 36.99237 203.38843 36.99237H115.51314C110.81638 36.99237 107.00902 40.79973 107.00902 45.49649V258.09757C107.00902 262.79435 110.81638 266.6017 115.51314 266.6017Z" fill="#f3f3f4"/>
<path transform="matrix(1,0,0,-1,56.985,363.828)" stroke-width="1.32874" stroke-linecap="butt" stroke-miterlimit="10" stroke-linejoin="miter" fill="none" stroke="#000000" d="M115.51314 266.6017H203.38843C208.08519 266.6017 211.89257 262.79435 211.89257 258.09757V45.49649C211.89257 40.79973 208.08519 36.99237 203.38843 36.99237H115.51314C110.81638 36.99237 107.00902 40.79973 107.00902 45.49649V258.09757C107.00902 262.79435 110.81638 266.6017 115.51314 266.6017Z"/>
<path transform="matrix(1,0,0,-1,56.985,363.828)" d="M2.83484 0H68.03217C69.59781 0 70.867-1.2692 70.867-2.83484V-22.6771C70.867-24.24274 69.59781-25.51193 68.03217-25.51193H2.83484C1.2692-25.51193 0-24.24274 0-22.6771V-2.83484C0-1.2692 1.2692 0 2.83484 0Z" fill="#fce0e1"/>
<path transform="matrix(1,0,0,-1,56.985,363.828)" stroke-width="1.32874" stroke-linecap="butt" stroke-miterlimit="10" stroke-linejoin="miter" fill="none" stroke="#000000" d="M2.83484 0H68.03217C69.59781 0 70.867-1.2692 70.867-2.83484V-22.6771C70.867-24.24274 69.59781-25.51193 68.03217-25.51193H2.83484C1.2692-25.51193 0-24.24274 0-22.6771V-2.83484C0-1.2692 1.2692 0 2.83484 0Z"/>
<use data-text="I" xlink:href="#font_0_5" transform="matrix(9.9626,0,0,-9.9626,78.723,373.778)"/>
<use data-text="n" xlink:href="#font_0_26" transform="matrix(9.9626,0,0,-9.9626,82.319499,373.778)"/>
<use data-text="p" xlink:href="#font_0_28" transform="matrix(9.9626,0,0,-9.9626,87.84874,373.778)"/>
<use data-text="u" xlink:href="#font_0_34" transform="matrix(9.9626,0,0,-9.9626,93.37798,373.778)"/>
<use data-text="t" xlink:href="#font_0_33" transform="matrix(9.9626,0,0,-9.9626,98.90723,373.778)"/>
<use data-text="E" xlink:href="#font_0_2" transform="matrix(9.9626,0,0,-9.9626,67.725,384.315)"/>
<use data-text="m" xlink:href="#font_0_25" transform="matrix(9.9626,0,0,-9.9626,74.499568,384.315)"/>
<use data-text="b" xlink:href="#font_0_14" transform="matrix(9.9626,0,0,-9.9626,82.519458,384.315)"/>
<use data-text="e" xlink:href="#font_0_17" transform="matrix(9.9626,0,0,-9.9626,88.32765,384.315)"/>
<use data-text="d" xlink:href="#font_0_16" transform="matrix(9.9626,0,0,-9.9626,92.751049,384.315)"/>
<use data-text="d" xlink:href="#font_0_16" transform="matrix(9.9626,0,0,-9.9626,98.28029,384.315)"/>
<use data-text="i" xlink:href="#font_0_22" transform="matrix(9.9626,0,0,-9.9626,103.80953,384.315)"/>
<use data-text="n" xlink:href="#font_0_26" transform="matrix(9.9626,0,0,-9.9626,106.57913,384.315)"/>
<use data-text="g" xlink:href="#font_0_19" transform="matrix(9.9626,0,0,-9.9626,112.108379,384.315)"/>
<path transform="matrix(1,0,0,-1,56.985,363.828)" d="M116.22208 0H181.4194C182.98505 0 184.25424-1.2692 184.25424-2.83484V-22.6771C184.25424-24.24274 182.98505-25.51193 181.4194-25.51193H116.22208C114.65643-25.51193 113.38724-24.24274 113.38724-22.6771V-2.83484C113.38724-1.2692 114.65643 0 116.22208 0Z" fill="#fce0e1"/>
<path transform="matrix(1,0,0,-1,56.985,363.828)" stroke-width="1.32874" stroke-linecap="butt" stroke-miterlimit="10" stroke-linejoin="miter" fill="none" stroke="#000000" d="M116.22208 0H181.4194C182.98505 0 184.25424-1.2692 184.25424-2.83484V-22.6771C184.25424-24.24274 182.98505-25.51193 181.4194-25.51193H116.22208C114.65643-25.51193 113.38724-24.24274 113.38724-22.6771V-2.83484C113.38724-1.2692 114.65643 0 116.22208 0Z"/>
<use data-text="O" xlink:href="#font_0_9" transform="matrix(9.9626,0,0,-9.9626,188.097,373.778)"/>
<use data-text="u" xlink:href="#font_0_34" transform="matrix(9.9626,0,0,-9.9626,195.8479,373.778)"/>
<use data-text="t" xlink:href="#font_0_33" transform="matrix(9.9626,0,0,-9.9626,201.37714,373.778)"/>
<use data-text="p" xlink:href="#font_0_28" transform="matrix(9.9626,0,0,-9.9626,205.2526,373.778)"/>
<use data-text="u" xlink:href="#font_0_34" transform="matrix(9.9626,0,0,-9.9626,210.78183,373.778)"/>
<use data-text="t" xlink:href="#font_0_33" transform="matrix(9.9626,0,0,-9.9626,216.31107,373.778)"/>
<use data-text="E" xlink:href="#font_0_2" transform="matrix(9.9626,0,0,-9.9626,181.111,384.315)"/>
<use data-text="m" xlink:href="#font_0_25" transform="matrix(9.9626,0,0,-9.9626,187.88556,384.315)"/>
<use data-text="b" xlink:href="#font_0_14" transform="matrix(9.9626,0,0,-9.9626,195.90546,384.315)"/>
<use data-text="e" xlink:href="#font_0_17" transform="matrix(9.9626,0,0,-9.9626,201.71364,384.315)"/>
<use data-text="d" xlink:href="#font_0_16" transform="matrix(9.9626,0,0,-9.9626,206.13704,384.315)"/>
<use data-text="d" xlink:href="#font_0_16" transform="matrix(9.9626,0,0,-9.9626,211.66628,384.315)"/>
<use data-text="i" xlink:href="#font_0_22" transform="matrix(9.9626,0,0,-9.9626,217.19551,384.315)"/>
<use data-text="n" xlink:href="#font_0_26" transform="matrix(9.9626,0,0,-9.9626,219.96512,384.315)"/>
<use data-text="g" xlink:href="#font_0_19" transform="matrix(9.9626,0,0,-9.9626,225.49436,384.315)"/>
<path transform="matrix(1,0,0,-1,56.985,363.828)" d="M2.83484 104.31604H68.03217C69.59781 104.31604 70.867 103.04684 70.867 101.4812V92.97748C70.867 91.41183 69.59781 90.14264 68.03217 90.14264H2.83484C1.2692 90.14264 0 91.41183 0 92.97748V101.4812C0 103.04684 1.2692 104.31604 2.83484 104.31604Z" fill="#f2f3c1"/>
<path transform="matrix(1,0,0,-1,56.985,363.828)" stroke-width="1.32874" stroke-linecap="butt" stroke-miterlimit="10" stroke-linejoin="miter" fill="none" stroke="#000000" d="M2.83484 104.31604H68.03217C69.59781 104.31604 70.867 103.04684 70.867 101.4812V92.97748C70.867 91.41183 69.59781 90.14264 68.03217 90.14264H2.83484C1.2692 90.14264 0 91.41183 0 92.97748V101.4812C0 103.04684 1.2692 104.31604 2.83484 104.31604Z"/>
<use data-text="A" xlink:href="#font_0_1" transform="matrix(9.9626,0,0,-9.9626,63.769,270.031)"/>
<use data-text="d" xlink:href="#font_0_16" transform="matrix(9.9626,0,0,-9.9626,70.962,270.031)"/>
<use data-text="d" xlink:href="#font_0_16" transform="matrix(9.9626,0,0,-9.9626,76.49124,270.031)"/>
<use data-text="&amp;" xlink:href="#font_0_13" transform="matrix(9.9626,0,0,-9.9626,85.34799,270.031)"/>
<use data-text="N" xlink:href="#font_0_8" transform="matrix(9.9626,0,0,-9.9626,96.416439,270.031)"/>
<use data-text="o" xlink:href="#font_0_27" transform="matrix(9.9626,0,0,-9.9626,103.88838,270.031)"/>
<use data-text="r" xlink:href="#font_0_31" transform="matrix(9.9626,0,0,-9.9626,108.86968,270.031)"/>
<use data-text="m" xlink:href="#font_0_25" transform="matrix(9.9626,0,0,-9.9626,112.775028,270.031)"/>
<path transform="matrix(1,0,0,-1,56.985,363.828)" d="M2.83484 85.8908H68.03217C69.59781 85.8908 70.867 84.6216 70.867 83.05594V63.21368C70.867 61.64803 69.59781 60.37883 68.03217 60.37883H2.83484C1.2692 60.37883 0 61.64803 0 63.21368V83.05594C0 84.6216 1.2692 85.8908 2.83484 85.8908Z" fill="#fce2bb"/>
<path transform="matrix(1,0,0,-1,56.985,363.828)" stroke-width="1.32874" stroke-linecap="butt" stroke-miterlimit="10" stroke-linejoin="miter" fill="none" stroke="#000000" d="M2.83484 85.8908H68.03217C69.59781 85.8908 70.867 84.6216 70.867 83.05594V63.21368C70.867 61.64803 69.59781 60.37883 68.03217 60.37883H2.83484C1.2692 60.37883 0 61.64803 0 63.21368V83.05594C0 84.6216 1.2692 85.8908 2.83484 85.8908Z"/>
<use data-text="M" xlink:href="#font_0_7" transform="matrix(9.9626,0,0,-9.9626,65.858,288.85603)"/>
<use data-text="u" xlink:href="#font_0_34" transform="matrix(9.9626,0,0,-9.9626,74.98374,288.85603)"/>
<use data-text="l" xlink:href="#font_0_24" transform="matrix(9.9626,0,0,-9.9626,80.512989,288.85603)"/>
<use data-text="t" xlink:href="#font_0_33" transform="matrix(9.9626,0,0,-9.9626,83.282588,288.85603)"/>
<use data-text="i" xlink:href="#font_0_22" transform="matrix(9.9626,0,0,-9.9626,87.158039,288.85603)"/>
<use data-text="-" xlink:href="#font_0_21" transform="matrix(9.9626,0,0,-9.9626,89.927639,288.85603)"/>
<use data-text="H" xlink:href="#font_0_4" transform="matrix(9.9626,0,0,-9.9626,93.24518,288.85603)"/>
<use data-text="e" xlink:href="#font_0_17" transform="matrix(9.9626,0,0,-9.9626,100.71713,288.85603)"/>
<use data-text="a" xlink:href="#font_0_12" transform="matrix(9.9626,0,0,-9.9626,105.140529,288.85603)"/>
<use data-text="d" xlink:href="#font_0_16" transform="matrix(9.9626,0,0,-9.9626,110.121829,288.85603)"/>
<use data-text="A" xlink:href="#font_0_1" transform="matrix(9.9626,0,0,-9.9626,71.53,299.394)"/>
<use data-text="t" xlink:href="#font_0_33" transform="matrix(9.9626,0,0,-9.9626,78.723,299.394)"/>
<use data-text="t" xlink:href="#font_0_33" transform="matrix(9.9626,0,0,-9.9626,82.59845,299.394)"/>
<use data-text="e" xlink:href="#font_0_17" transform="matrix(9.9626,0,0,-9.9626,86.4739,299.394)"/>
<use data-text="n" xlink:href="#font_0_26" transform="matrix(9.9626,0,0,-9.9626,90.89729,299.394)"/>
<use data-text="t" xlink:href="#font_0_33" transform="matrix(9.9626,0,0,-9.9626,96.14758,299.394)"/>
<use data-text="i" xlink:href="#font_0_22" transform="matrix(9.9626,0,0,-9.9626,100.02303,299.394)"/>
<use data-text="o" xlink:href="#font_0_27" transform="matrix(9.9626,0,0,-9.9626,102.79263,299.394)"/>
<use data-text="n" xlink:href="#font_0_26" transform="matrix(9.9626,0,0,-9.9626,107.77393,299.394)"/>
<path transform="matrix(1,0,0,-1,56.985,363.828)" stroke-width="1.32874" stroke-linecap="butt" stroke-miterlimit="10" stroke-linejoin="miter" fill="none" stroke="#000000" d="M35.43349 85.8908V90.14264"/>
<path transform="matrix(1,0,0,-1,56.985,363.828)" d="M116.22208 187.93947H181.4194C182.98505 187.93947 184.25424 186.67028 184.25424 185.10462V176.60092C184.25424 175.03527 182.98505 173.76607 181.4194 173.76607H116.22208C114.65643 173.76607 113.38724 175.03527 113.38724 176.60092V185.10462C113.38724 186.67028 114.65643 187.93947 116.22208 187.93947Z" fill="#f2f3c1"/>
<path transform="matrix(1,0,0,-1,56.985,363.828)" stroke-width="1.32874" stroke-linecap="butt" stroke-miterlimit="10" stroke-linejoin="miter" fill="none" stroke="#000000" d="M116.22208 187.93947H181.4194C182.98505 187.93947 184.25424 186.67028 184.25424 185.10462V176.60092C184.25424 175.03527 182.98505 173.76607 181.4194 173.76607H116.22208C114.65643 173.76607 113.38724 175.03527 113.38724 176.60092V185.10462C113.38724 186.67028 114.65643 187.93947 116.22208 187.93947Z"/>
<use data-text="A" xlink:href="#font_0_1" transform="matrix(9.9626,0,0,-9.9626,177.155,186.40898)"/>
<use data-text="d" xlink:href="#font_0_16" transform="matrix(9.9626,0,0,-9.9626,184.348,186.40898)"/>
<use data-text="d" xlink:href="#font_0_16" transform="matrix(9.9626,0,0,-9.9626,189.87725,186.40898)"/>
<use data-text="&amp;" xlink:href="#font_0_13" transform="matrix(9.9626,0,0,-9.9626,198.734,186.40898)"/>
<use data-text="N" xlink:href="#font_0_8" transform="matrix(9.9626,0,0,-9.9626,209.80245,186.40898)"/>
<use data-text="o" xlink:href="#font_0_27" transform="matrix(9.9626,0,0,-9.9626,217.2744,186.40898)"/>
<use data-text="r" xlink:href="#font_0_31" transform="matrix(9.9626,0,0,-9.9626,222.25569,186.40898)"/>
<use data-text="m" xlink:href="#font_0_25" transform="matrix(9.9626,0,0,-9.9626,226.16103,186.40898)"/>
<path transform="matrix(1,0,0,-1,56.985,363.828)" d="M116.22208 169.5138H181.4194C182.98505 169.5138 184.25424 168.24459 184.25424 166.67894V146.83667C184.25424 145.27103 182.98505 144.00183 181.4194 144.00183H116.22208C114.65643 144.00183 113.38724 145.27103 113.38724 146.83667V166.67894C113.38724 168.24459 114.65643 169.5138 116.22208 169.5138Z" fill="#fce2bb"/>
<path transform="matrix(1,0,0,-1,56.985,363.828)" stroke-width="1.32874" stroke-linecap="butt" stroke-miterlimit="10" stroke-linejoin="miter" fill="none" stroke="#000000" d="M116.22208 169.5138H181.4194C182.98505 169.5138 184.25424 168.24459 184.25424 166.67894V146.83667C184.25424 145.27103 182.98505 144.00183 181.4194 144.00183H116.22208C114.65643 144.00183 113.38724 145.27103 113.38724 146.83667V166.67894C113.38724 168.24459 114.65643 169.5138 116.22208 169.5138Z"/>
<use data-text="M" xlink:href="#font_0_7" transform="matrix(9.9626,0,0,-9.9626,179.244,205.234)"/>
<use data-text="u" xlink:href="#font_0_34" transform="matrix(9.9626,0,0,-9.9626,188.36975,205.234)"/>
<use data-text="l" xlink:href="#font_0_24" transform="matrix(9.9626,0,0,-9.9626,193.89899,205.234)"/>
<use data-text="t" xlink:href="#font_0_33" transform="matrix(9.9626,0,0,-9.9626,196.6686,205.234)"/>
<use data-text="i" xlink:href="#font_0_22" transform="matrix(9.9626,0,0,-9.9626,200.54405,205.234)"/>
<use data-text="-" xlink:href="#font_0_21" transform="matrix(9.9626,0,0,-9.9626,203.31366,205.234)"/>
<use data-text="H" xlink:href="#font_0_4" transform="matrix(9.9626,0,0,-9.9626,206.63121,205.234)"/>
<use data-text="e" xlink:href="#font_0_17" transform="matrix(9.9626,0,0,-9.9626,214.10317,205.234)"/>
<use data-text="a" xlink:href="#font_0_12" transform="matrix(9.9626,0,0,-9.9626,218.52657,205.234)"/>
<use data-text="d" xlink:href="#font_0_16" transform="matrix(9.9626,0,0,-9.9626,223.50786,205.234)"/>
<use data-text="A" xlink:href="#font_0_1" transform="matrix(9.9626,0,0,-9.9626,184.91501,215.77199)"/>
<use data-text="t" xlink:href="#font_0_33" transform="matrix(9.9626,0,0,-9.9626,192.10802,215.77199)"/>
<use data-text="t" xlink:href="#font_0_33" transform="matrix(9.9626,0,0,-9.9626,195.98348,215.77199)"/>
<use data-text="e" xlink:href="#font_0_17" transform="matrix(9.9626,0,0,-9.9626,199.85894,215.77199)"/>
<use data-text="n" xlink:href="#font_0_26" transform="matrix(9.9626,0,0,-9.9626,204.28234,215.77199)"/>
<use data-text="t" xlink:href="#font_0_33" transform="matrix(9.9626,0,0,-9.9626,209.54257,215.77199)"/>
<use data-text="i" xlink:href="#font_0_22" transform="matrix(9.9626,0,0,-9.9626,213.41803,215.77199)"/>
<use data-text="o" xlink:href="#font_0_27" transform="matrix(9.9626,0,0,-9.9626,216.18764,215.77199)"/>
<use data-text="n" xlink:href="#font_0_26" transform="matrix(9.9626,0,0,-9.9626,221.16893,215.77199)"/>
<path transform="matrix(1,0,0,-1,56.985,363.828)" stroke-width="1.32874" stroke-linecap="butt" stroke-miterlimit="10" stroke-linejoin="miter" fill="none" stroke="#000000" d="M148.82074 169.5138V173.76607"/>
<path transform="matrix(1,0,0,-1,56.985,363.828)" d="M116.22208 115.65501H181.4194C182.98505 115.65501 184.25424 114.38582 184.25424 112.82018V104.31647C184.25424 102.75082 182.98505 101.48161 181.4194 101.48161H116.22208C114.65643 101.48161 113.38724 102.75082 113.38724 104.31647V112.82018C113.38724 114.38582 114.65643 115.65501 116.22208 115.65501Z" fill="#f2f3c1"/>
<path transform="matrix(1,0,0,-1,56.985,363.828)" stroke-width="1.32874" stroke-linecap="butt" stroke-miterlimit="10" stroke-linejoin="miter" fill="none" stroke="#000000" d="M116.22208 115.65501H181.4194C182.98505 115.65501 184.25424 114.38582 184.25424 112.82018V104.31647C184.25424 102.75082 182.98505 101.48161 181.4194 101.48161H116.22208C114.65643 101.48161 113.38724 102.75082 113.38724 104.31647V112.82018C113.38724 114.38582 114.65643 115.65501 116.22208 115.65501Z"/>
<use data-text="A" xlink:href="#font_0_1" transform="matrix(9.9626,0,0,-9.9626,177.155,258.69203)"/>
<use data-text="d" xlink:href="#font_0_16" transform="matrix(9.9626,0,0,-9.9626,184.348,258.69203)"/>
<use data-text="d" xlink:href="#font_0_16" transform="matrix(9.9626,0,0,-9.9626,189.87725,258.69203)"/>
<use data-text="&amp;" xlink:href="#font_0_13" transform="matrix(9.9626,0,0,-9.9626,198.734,258.69203)"/>
<use data-text="N" xlink:href="#font_0_8" transform="matrix(9.9626,0,0,-9.9626,209.80245,258.69203)"/>
<use data-text="o" xlink:href="#font_0_27" transform="matrix(9.9626,0,0,-9.9626,217.2744,258.69203)"/>
<use data-text="r" xlink:href="#font_0_31" transform="matrix(9.9626,0,0,-9.9626,222.25569,258.69203)"/>
<use data-text="m" xlink:href="#font_0_25" transform="matrix(9.9626,0,0,-9.9626,226.16103,258.69203)"/>
<path transform="matrix(1,0,0,-1,56.985,363.828)" d="M116.22208 97.22934H181.4194C182.98505 97.22934 184.25424 95.96014 184.25424 94.39449V63.21368C184.25424 61.64803 182.98505 60.37883 181.4194 60.37883H116.22208C114.65643 60.37883 113.38724 61.64803 113.38724 63.21368V94.39449C113.38724 95.96014 114.65643 97.22934 116.22208 97.22934Z" fill="#fce2bb"/>
<path transform="matrix(1,0,0,-1,56.985,363.828)" stroke-width="1.32874" stroke-linecap="butt" stroke-miterlimit="10" stroke-linejoin="miter" fill="none" stroke="#000000" d="M116.22208 97.22934H181.4194C182.98505 97.22934 184.25424 95.96014 184.25424 94.39449V63.21368C184.25424 61.64803 182.98505 60.37883 181.4194 60.37883H116.22208C114.65643 60.37883 113.38724 61.64803 113.38724 63.21368V94.39449C113.38724 95.96014 114.65643 97.22934 116.22208 97.22934Z"/>
<use data-text="M" xlink:href="#font_0_7" transform="matrix(9.9626,0,0,-9.9626,187.655,277.91798)"/>
<use data-text="a" xlink:href="#font_0_12" transform="matrix(9.9626,0,0,-9.9626,196.78075,277.91798)"/>
<use data-text="s" xlink:href="#font_0_32" transform="matrix(9.9626,0,0,-9.9626,201.76204,277.91798)"/>
<use data-text="k" xlink:href="#font_0_23" transform="matrix(9.9626,0,0,-9.9626,205.6873,277.91798)"/>
<use data-text="e" xlink:href="#font_0_17" transform="matrix(9.9626,0,0,-9.9626,210.66861,277.91798)"/>
<use data-text="d" xlink:href="#font_0_16" transform="matrix(9.9626,0,0,-9.9626,215.09201,277.91798)"/>
<use data-text="M" xlink:href="#font_0_7" transform="matrix(9.9626,0,0,-9.9626,179.244,288.456)"/>
<use data-text="u" xlink:href="#font_0_34" transform="matrix(9.9626,0,0,-9.9626,188.36975,288.456)"/>
<use data-text="l" xlink:href="#font_0_24" transform="matrix(9.9626,0,0,-9.9626,193.89899,288.456)"/>
<use data-text="t" xlink:href="#font_0_33" transform="matrix(9.9626,0,0,-9.9626,196.6686,288.456)"/>
<use data-text="i" xlink:href="#font_0_22" transform="matrix(9.9626,0,0,-9.9626,200.54405,288.456)"/>
<use data-text="-" xlink:href="#font_0_21" transform="matrix(9.9626,0,0,-9.9626,203.31366,288.456)"/>
<use data-text="H" xlink:href="#font_0_4" transform="matrix(9.9626,0,0,-9.9626,206.63121,288.456)"/>
<use data-text="e" xlink:href="#font_0_17" transform="matrix(9.9626,0,0,-9.9626,214.10317,288.456)"/>
<use data-text="a" xlink:href="#font_0_12" transform="matrix(9.9626,0,0,-9.9626,218.52657,288.456)"/>
<use data-text="d" xlink:href="#font_0_16" transform="matrix(9.9626,0,0,-9.9626,223.50786,288.456)"/>
<use data-text="A" xlink:href="#font_0_1" transform="matrix(9.9626,0,0,-9.9626,184.91501,298.99397)"/>
<use data-text="t" xlink:href="#font_0_33" transform="matrix(9.9626,0,0,-9.9626,192.10802,298.99397)"/>
<use data-text="t" xlink:href="#font_0_33" transform="matrix(9.9626,0,0,-9.9626,195.98348,298.99397)"/>
<use data-text="e" xlink:href="#font_0_17" transform="matrix(9.9626,0,0,-9.9626,199.85894,298.99397)"/>
<use data-text="n" xlink:href="#font_0_26" transform="matrix(9.9626,0,0,-9.9626,204.28234,298.99397)"/>
<use data-text="t" xlink:href="#font_0_33" transform="matrix(9.9626,0,0,-9.9626,209.54257,298.99397)"/>
<use data-text="i" xlink:href="#font_0_22" transform="matrix(9.9626,0,0,-9.9626,213.41803,298.99397)"/>
<use data-text="o" xlink:href="#font_0_27" transform="matrix(9.9626,0,0,-9.9626,216.18764,298.99397)"/>
<use data-text="n" xlink:href="#font_0_26" transform="matrix(9.9626,0,0,-9.9626,221.16893,298.99397)"/>
<path transform="matrix(1,0,0,-1,56.985,363.828)" stroke-width="1.32874" stroke-linecap="butt" stroke-miterlimit="10" stroke-linejoin="miter" fill="none" stroke="#000000" d="M148.82074 97.22934V101.48161"/>
<path transform="matrix(1,0,0,-1,56.985,363.828)" d="M2.83484 176.6005H68.03217C69.59781 176.6005 70.867 175.3313 70.867 173.76564V165.26194C70.867 163.69628 69.59781 162.42708 68.03217 162.42708H2.83484C1.2692 162.42708 0 163.69628 0 165.26194V173.76564C0 175.3313 1.2692 176.6005 2.83484 176.6005Z" fill="#f2f3c1"/>
<path transform="matrix(1,0,0,-1,56.985,363.828)" stroke-width="1.32874" stroke-linecap="butt" stroke-miterlimit="10" stroke-linejoin="miter" fill="none" stroke="#000000" d="M2.83484 176.6005H68.03217C69.59781 176.6005 70.867 175.3313 70.867 173.76564V165.26194C70.867 163.69628 69.59781 162.42708 68.03217 162.42708H2.83484C1.2692 162.42708 0 163.69628 0 165.26194V173.76564C0 175.3313 1.2692 176.6005 2.83484 176.6005Z"/>
<use data-text="A" xlink:href="#font_0_1" transform="matrix(9.9626,0,0,-9.9626,63.769,197.747)"/>
<use data-text="d" xlink:href="#font_0_16" transform="matrix(9.9626,0,0,-9.9626,70.962,197.747)"/>
<use data-text="d" xlink:href="#font_0_16" transform="matrix(9.9626,0,0,-9.9626,76.49124,197.747)"/>
<use data-text="&amp;" xlink:href="#font_0_13" transform="matrix(9.9626,0,0,-9.9626,85.34799,197.747)"/>
<use data-text="N" xlink:href="#font_0_8" transform="matrix(9.9626,0,0,-9.9626,96.416439,197.747)"/>
<use data-text="o" xlink:href="#font_0_27" transform="matrix(9.9626,0,0,-9.9626,103.88838,197.747)"/>
<use data-text="r" xlink:href="#font_0_31" transform="matrix(9.9626,0,0,-9.9626,108.86968,197.747)"/>
<use data-text="m" xlink:href="#font_0_25" transform="matrix(9.9626,0,0,-9.9626,112.775028,197.747)"/>
<path transform="matrix(1,0,0,-1,56.985,363.828)" d="M2.83484 158.17525H68.03217C69.59781 158.17525 70.867 156.90604 70.867 155.3404V135.49771C70.867 133.93206 69.59781 132.66286 68.03217 132.66286H2.83484C1.2692 132.66286 0 133.93206 0 135.49771V155.3404C0 156.90604 1.2692 158.17525 2.83484 158.17525Z" fill="#c2e8f7"/>
<path transform="matrix(1,0,0,-1,56.985,363.828)" stroke-width="1.32874" stroke-linecap="butt" stroke-miterlimit="10" stroke-linejoin="miter" fill="none" stroke="#000000" d="M2.83484 158.17525H68.03217C69.59781 158.17525 70.867 156.90604 70.867 155.3404V135.49771C70.867 133.93206 69.59781 132.66286 68.03217 132.66286H2.83484C1.2692 132.66286 0 133.93206 0 135.49771V155.3404C0 156.90604 1.2692 158.17525 2.83484 158.17525Z"/>
<use data-text="F" xlink:href="#font_0_3" transform="matrix(9.9626,0,0,-9.9626,80.729007,216.57299)"/>
<use data-text="e" xlink:href="#font_0_17" transform="matrix(9.9626,0,0,-9.9626,86.407688,216.57299)"/>
<use data-text="e" xlink:href="#font_0_17" transform="matrix(9.9626,0,0,-9.9626,90.83108,216.57299)"/>
<use data-text="d" xlink:href="#font_0_16" transform="matrix(9.9626,0,0,-9.9626,95.25447,216.57299)"/>
<use data-text="F" xlink:href="#font_0_3" transform="matrix(9.9626,0,0,-9.9626,74.476009,227.11098)"/>
<use data-text="o" xlink:href="#font_0_27" transform="matrix(9.9626,0,0,-9.9626,80.154689,227.11098)"/>
<use data-text="r" xlink:href="#font_0_31" transform="matrix(9.9626,0,0,-9.9626,85.13599,227.11098)"/>
<use data-text="w" xlink:href="#font_0_35" transform="matrix(9.9626,0,0,-9.9626,89.04133,227.11098)"/>
<use data-text="a" xlink:href="#font_0_12" transform="matrix(9.9626,0,0,-9.9626,95.955379,227.11098)"/>
<use data-text="r" xlink:href="#font_0_31" transform="matrix(9.9626,0,0,-9.9626,100.936679,227.11098)"/>
<use data-text="d" xlink:href="#font_0_16" transform="matrix(9.9626,0,0,-9.9626,104.84202,227.11098)"/>
<path transform="matrix(1,0,0,-1,56.985,363.828)" stroke-width="1.32874" stroke-linecap="butt" stroke-miterlimit="10" stroke-linejoin="miter" fill="none" stroke="#000000" d="M35.43349 158.17525V162.42708"/>
<path transform="matrix(1,0,0,-1,56.985,363.828)" d="M116.22208 260.2235H181.4194C182.98505 260.2235 184.25424 258.9543 184.25424 257.38865V248.88495C184.25424 247.31929 182.98505 246.0501 181.4194 246.0501H116.22208C114.65643 246.0501 113.38724 247.31929 113.38724 248.88495V257.38865C113.38724 258.9543 114.65643 260.2235 116.22208 260.2235Z" fill="#f2f3c1"/>
<path transform="matrix(1,0,0,-1,56.985,363.828)" stroke-width="1.32874" stroke-linecap="butt" stroke-miterlimit="10" stroke-linejoin="miter" fill="none" stroke="#000000" d="M116.22208 260.2235H181.4194C182.98505 260.2235 184.25424 258.9543 184.25424 257.38865V248.88495C184.25424 247.31929 182.98505 246.0501 181.4194 246.0501H116.22208C114.65643 246.0501 113.38724 247.31929 113.38724 248.88495V257.38865C113.38724 258.9543 114.65643 260.2235 116.22208 260.2235Z"/>
<use data-text="A" xlink:href="#font_0_1" transform="matrix(9.9626,0,0,-9.9626,177.155,114.12601)"/>
<use data-text="d" xlink:href="#font_0_16" transform="matrix(9.9626,0,0,-9.9626,184.348,114.12601)"/>
<use data-text="d" xlink:href="#font_0_16" transform="matrix(9.9626,0,0,-9.9626,189.87725,114.12601)"/>
<use data-text="&amp;" xlink:href="#font_0_13" transform="matrix(9.9626,0,0,-9.9626,198.734,114.12601)"/>
<use data-text="N" xlink:href="#font_0_8" transform="matrix(9.9626,0,0,-9.9626,209.80245,114.12601)"/>
<use data-text="o" xlink:href="#font_0_27" transform="matrix(9.9626,0,0,-9.9626,217.2744,114.12601)"/>
<use data-text="r" xlink:href="#font_0_31" transform="matrix(9.9626,0,0,-9.9626,222.25569,114.12601)"/>
<use data-text="m" xlink:href="#font_0_25" transform="matrix(9.9626,0,0,-9.9626,226.16103,114.12601)"/>
<path transform="matrix(1,0,0,-1,56.985,363.828)" d="M116.22208 241.79824H181.4194C182.98505 241.79824 184.25424 240.52904 184.25424 238.9634V219.12113C184.25424 217.55548 182.98505 216.28627 181.4194 216.28627H116.22208C114.65643 216.28627 113.38724 217.55548 113.38724 219.12113V238.9634C113.38724 240.52904 114.65643 241.79824 116.22208 241.79824Z" fill="#c2e8f7"/>
<path transform="matrix(1,0,0,-1,56.985,363.828)" stroke-width="1.32874" stroke-linecap="butt" stroke-miterlimit="10" stroke-linejoin="miter" fill="none" stroke="#000000" d="M116.22208 241.79824H181.4194C182.98505 241.79824 184.25424 240.52904 184.25424 238.9634V219.12113C184.25424 217.55548 182.98505 216.28627 181.4194 216.28627H116.22208C114.65643 216.28627 113.38724 217.55548 113.38724 219.12113V238.9634C113.38724 240.52904 114.65643 241.79824 116.22208 241.79824Z"/>
<use data-text="F" xlink:href="#font_0_3" transform="matrix(9.9626,0,0,-9.9626,194.115,132.95099)"/>
<use data-text="e" xlink:href="#font_0_17" transform="matrix(9.9626,0,0,-9.9626,199.7937,132.95099)"/>
<use data-text="e" xlink:href="#font_0_17" transform="matrix(9.9626,0,0,-9.9626,204.2171,132.95099)"/>
<use data-text="d" xlink:href="#font_0_16" transform="matrix(9.9626,0,0,-9.9626,208.6405,132.95099)"/>
<use data-text="F" xlink:href="#font_0_3" transform="matrix(9.9626,0,0,-9.9626,187.862,143.48899)"/>
<use data-text="o" xlink:href="#font_0_27" transform="matrix(9.9626,0,0,-9.9626,193.5407,143.48899)"/>
<use data-text="r" xlink:href="#font_0_31" transform="matrix(9.9626,0,0,-9.9626,198.52199,143.48899)"/>
<use data-text="w" xlink:href="#font_0_35" transform="matrix(9.9626,0,0,-9.9626,202.42733,143.48899)"/>
<use data-text="a" xlink:href="#font_0_12" transform="matrix(9.9626,0,0,-9.9626,209.34137,143.48899)"/>
<use data-text="r" xlink:href="#font_0_31" transform="matrix(9.9626,0,0,-9.9626,214.32266,143.48899)"/>
<use data-text="d" xlink:href="#font_0_16" transform="matrix(9.9626,0,0,-9.9626,218.228,143.48899)"/>
<path transform="matrix(1,0,0,-1,56.985,363.828)" stroke-width="1.32874" stroke-linecap="butt" stroke-miterlimit="10" stroke-linejoin="miter" fill="none" stroke="#000000" d="M148.82074 241.79824V246.0501"/>
<path transform="matrix(1,0,0,-1,56.985,363.828)" d="M116.22208 291.40516H181.4194C182.98505 291.40516 184.25424 290.13597 184.25424 288.5703V280.0666C184.25424 278.50096 182.98505 277.23176 181.4194 277.23176H116.22208C114.65643 277.23176 113.38724 278.50096 113.38724 280.0666V288.5703C113.38724 290.13597 114.65643 291.40516 116.22208 291.40516Z" fill="#dcdff0"/>
<path transform="matrix(1,0,0,-1,56.985,363.828)" stroke-width="1.32874" stroke-linecap="butt" stroke-miterlimit="10" stroke-linejoin="miter" fill="none" stroke="#000000" d="M116.22208 291.40516H181.4194C182.98505 291.40516 184.25424 290.13597 184.25424 288.5703V280.0666C184.25424 278.50096 182.98505 277.23176 181.4194 277.23176H116.22208C114.65643 277.23176 113.38724 278.50096 113.38724 280.0666V288.5703C113.38724 290.13597 114.65643 291.40516 116.22208 291.40516Z"/>
<use data-text="L" xlink:href="#font_0_6" transform="matrix(9.9626,0,0,-9.9626,191.88701,82.944)"/>
<use data-text="i" xlink:href="#font_0_22" transform="matrix(9.9626,0,0,-9.9626,198.11363,82.944)"/>
<use data-text="n" xlink:href="#font_0_26" transform="matrix(9.9626,0,0,-9.9626,200.88324,82.944)"/>
<use data-text="e" xlink:href="#font_0_17" transform="matrix(9.9626,0,0,-9.9626,206.41248,82.944)"/>
<use data-text="a" xlink:href="#font_0_12" transform="matrix(9.9626,0,0,-9.9626,210.83588,82.944)"/>
<use data-text="r" xlink:href="#font_0_31" transform="matrix(9.9626,0,0,-9.9626,215.81717,82.944)"/>
<path transform="matrix(1,0,0,-1,56.985,363.828)" d="M116.22208 322.58683H181.4194C182.98505 322.58683 184.25424 321.31764 184.25424 319.75199V311.24827C184.25424 309.68263 182.98505 308.4134 181.4194 308.4134H116.22208C114.65643 308.4134 113.38724 309.68263 113.38724 311.24827V319.75199C113.38724 321.31764 114.65643 322.58683 116.22208 322.58683Z" fill="#cbe7cf"/>
<path transform="matrix(1,0,0,-1,56.985,363.828)" stroke-width="1.32874" stroke-linecap="butt" stroke-miterlimit="10" stroke-linejoin="miter" fill="none" stroke="#000000" d="M116.22208 322.58683H181.4194C182.98505 322.58683 184.25424 321.31764 184.25424 319.75199V311.24827C184.25424 309.68263 182.98505 308.4134 181.4194 308.4134H116.22208C114.65643 308.4134 113.38724 309.68263 113.38724 311.24827V319.75199C113.38724 321.31764 114.65643 322.58683 116.22208 322.58683Z"/>
<use data-text="S" xlink:href="#font_0_11" transform="matrix(9.9626,0,0,-9.9626,187.82,51.763)"/>
<use data-text="o" xlink:href="#font_0_27" transform="matrix(9.9626,0,0,-9.9626,193.34925,51.763)"/>
<use data-text="f" xlink:href="#font_0_18" transform="matrix(9.9626,0,0,-9.9626,198.33054,51.763)"/>
<use data-text="t" xlink:href="#font_0_33" transform="matrix(9.9626,0,0,-9.9626,201.37909,51.763)"/>
<use data-text="m" xlink:href="#font_0_25" transform="matrix(9.9626,0,0,-9.9626,205.25455,51.763)"/>
<use data-text="a" xlink:href="#font_0_12" transform="matrix(9.9626,0,0,-9.9626,213.55339,51.763)"/>
<use data-text="x" xlink:href="#font_0_36" transform="matrix(9.9626,0,0,-9.9626,218.53469,51.763)"/>
<path transform="matrix(1,0,0,-1,56.985,363.828)" stroke-width="1.32874" stroke-linecap="butt" stroke-miterlimit="10" stroke-linejoin="miter" fill="none" stroke="#000000" d="M41.10277 17.00824C41.10277 20.13933 38.56459 22.67752 35.43349 22.67752 32.3024 22.67752 29.76422 20.13933 29.76422 17.00824 29.76422 13.87715 32.3024 11.33896 35.43349 11.33896 38.56459 11.33896 41.10277 13.87715 41.10277 17.00824ZM35.43349 17.00824"/>
<path transform="matrix(1,0,0,-1,56.985,363.828)" stroke-width="1.32874" stroke-linecap="butt" stroke-miterlimit="10" stroke-linejoin="miter" fill="none" stroke="#000000" d="M39.9691 17.00824H30.8979"/>
<path transform="matrix(1,0,0,-1,56.985,363.828)" stroke-width="1.32874" stroke-linecap="butt" stroke-miterlimit="10" stroke-linejoin="miter" fill="none" stroke="#000000" d="M35.43349 21.5434V12.47266"/>
<path transform="matrix(1,0,0,-1,56.985,363.828)" stroke-width="1.32874" stroke-linecap="butt" stroke-miterlimit="10" stroke-linejoin="miter" fill="none" stroke="#000000" d="M154.49 17.00824C154.49 20.13933 151.95183 22.67752 148.82074 22.67752 145.68964 22.67752 143.15146 20.13933 143.15146 17.00824 143.15146 13.87715 145.68964 11.33896 148.82074 11.33896 151.95183 11.33896 154.49 13.87715 154.49 17.00824ZM148.82074 17.00824"/>
<path transform="matrix(1,0,0,-1,56.985,363.828)" stroke-width="1.32874" stroke-linecap="butt" stroke-miterlimit="10" stroke-linejoin="miter" fill="none" stroke="#000000" d="M153.35634 17.00824H144.28514"/>
<path transform="matrix(1,0,0,-1,56.985,363.828)" stroke-width="1.32874" stroke-linecap="butt" stroke-miterlimit="10" stroke-linejoin="miter" fill="none" stroke="#000000" d="M148.82074 21.5434V12.47266"/>
<path transform="matrix(1,0,0,-1,56.985,363.828)" stroke-width="1.32874" stroke-linecap="butt" stroke-miterlimit="10" stroke-linejoin="miter" fill="none" stroke="#000000" d="M21.2601 17.00824C21.2601 23.27042 16.18373 28.34679 9.92155 28.34679 3.65936 28.34679-1.41698 23.27042-1.41698 17.00824-1.41698 10.74606 3.65936 5.6697 9.92155 5.6697 16.18373 5.6697 21.2601 10.74606 21.2601 17.00824ZM9.92155 17.00824"/>
<path transform="matrix(1,0,0,-1,56.985,363.828)" stroke-width="1.32874" stroke-linecap="butt" stroke-miterlimit="10" stroke-linejoin="miter" fill="none" stroke="#000000" d="M-.85036 17.00824-.4109 17.8344 .02896 18.64755 .46843 19.43349 .90831 20.17961 1.34776 20.87383 1.78767 21.50449 2.22713 22.06114 2.667 22.53477 3.10648 22.91801 3.54637 23.20392 3.98582 23.38817 4.42572 23.46777 4.86517 23.44138 5.30505 23.30902 5.74452 23.0733 6.18442 22.73808 6.62387 22.309 7.06375 21.79254 7.50322 21.19781 7.94267 20.53387 8.38258 19.81238 8.82204 19.04463 9.26192 18.24356 9.70139 17.4222 10.14128 16.59387 10.58073 15.77249 11.02061 14.97142 11.46008 14.20367 11.89996 13.48221 12.33942 12.81868 12.77933 12.22351 13.21878 11.70705 13.65866 11.27797 14.09813 10.94275 14.53802 10.70703 14.97748 10.57468 15.41737 10.5483 15.85683 10.62788 16.29672 10.81213 16.73619 11.09804 17.17563 11.48128 17.61552 11.95491 18.055 12.51201 18.49487 13.14265 18.93433 13.83644 19.37424 14.58257 19.81369 15.3685 20.25357 16.18166 20.69304 17.00824"/>
<path transform="matrix(1,0,0,-1,56.985,363.828)" stroke-width="1.32874" stroke-linecap="butt" stroke-miterlimit="10" stroke-linejoin="miter" fill="none" stroke="#000000" d="M185.67124 17.00824C185.67124 23.27042 180.59488 28.34679 174.33269 28.34679 168.07051 28.34679 162.99414 23.27042 162.99414 17.00824 162.99414 10.74606 168.07051 5.6697 174.33269 5.6697 180.59488 5.6697 185.67124 10.74606 185.67124 17.00824ZM174.33269 17.00824"/>
<path transform="matrix(1,0,0,-1,56.985,363.828)" stroke-width="1.32874" stroke-linecap="butt" stroke-miterlimit="10" stroke-linejoin="miter" fill="none" stroke="#000000" d="M163.56119 17.00824 164.00066 17.8344 164.44055 18.64755 164.88 19.43349 165.3199 20.17961 165.75936 20.87383 166.19925 21.50449 166.63872 22.06114 167.0786 22.53477 167.51805 22.91801 167.95752 23.20392 168.3974 23.38817 168.83686 23.46777 169.27677 23.44138 169.71622 23.30902 170.1561 23.0733 170.59557 22.73808 171.03546 22.309 171.47492 21.79254 171.91481 21.19781 172.35427 20.53387 172.79416 19.81238 173.23363 19.04463 173.67351 18.24356 174.11296 17.4222 174.55284 16.59387 174.99231 15.77249 175.4322 14.97142 175.87166 14.20367 176.31156 13.48221 176.751 12.81868 177.19046 12.22351 177.63037 11.70705 178.06983 11.27797 178.5097 10.94275 178.94918 10.70703 179.38907 10.57468 179.82852 10.5483 180.26842 10.62788 180.70787 10.81213 181.14775 11.09804 181.58722 11.48128 182.02712 11.95491 182.46657 12.51201 182.90647 13.14265 183.34592 13.83644 183.78582 14.58257 184.22528 15.3685 184.66516 16.18166 185.10462 17.00824"/>
<path transform="matrix(1,0,0,-1,56.985,363.828)" stroke-width="1.32874" stroke-linecap="butt" stroke-miterlimit="10" stroke-linejoin="miter" fill="none" stroke="#000000" d="M35.43349 104.31604V126.5646"/>
<path transform="matrix(0,-1,-1,-0,92.41849,237.2634)" d="M6.09824 0C4.29132 .33879 1.35516 1.35516-.67758 2.54092V-2.54092C1.35516-1.35516 4.29132-.33879 6.09824 0"/>
<path transform="matrix(1,0,0,-1,56.985,363.828)" stroke-width="1.32874" stroke-linecap="butt" stroke-miterlimit="10" stroke-linejoin="miter" fill="none" stroke="#000000" d="M148.82074 187.93947V210.18804"/>
<path transform="matrix(0,-1,-1,-0,205.80574,153.63997)" d="M6.09824 0C4.29132 .33879 1.35516 1.35516-.67758 2.54092V-2.54092C1.35516-1.35516 4.29132-.33879 6.09824 0"/>
<path transform="matrix(1,0,0,-1,56.985,363.828)" stroke-width="1.32874" stroke-linecap="butt" stroke-miterlimit="10" stroke-linejoin="miter" fill="none" stroke="#000000" d="M148.82074 260.2235V271.1335"/>
<path transform="matrix(0,-1,-1,-0,205.80574,92.69449)" d="M6.09824 0C4.29132 .33879 1.35516 1.35516-.67758 2.54092V-2.54092C1.35516-1.35516 4.29132-.33879 6.09824 0"/>
<path transform="matrix(1,0,0,-1,56.985,363.828)" stroke-width="1.32874" stroke-linecap="butt" stroke-miterlimit="10" stroke-linejoin="miter" fill="none" stroke="#000000" d="M148.82074 291.40516V302.31517"/>
<path transform="matrix(0,-1,-1,-0,205.80574,61.512849)" d="M6.09824 0C4.29132 .33879 1.35516 1.35516-.67758 2.54092V-2.54092C1.35516-1.35516 4.29132-.33879 6.09824 0"/>
<path transform="matrix(1,0,0,-1,56.985,363.828)" stroke-width="1.32874" stroke-linecap="butt" stroke-miterlimit="10" stroke-linejoin="miter" fill="none" stroke="#000000" d="M35.43349 0V5.2403"/>
<path transform="matrix(0,-1,-1,-0,92.41849,358.5877)" d="M6.09824 0C4.29132 .33879 1.35516 1.35516-.67758 2.54092V-2.54092C1.35516-1.35516 4.29132-.33879 6.09824 0"/>
<path transform="matrix(1,0,0,-1,56.985,363.828)" stroke-width="1.32874" stroke-linecap="butt" stroke-miterlimit="10" stroke-linejoin="miter" fill="none" stroke="#000000" d="M35.43349 22.67752V54.2806"/>
<path transform="matrix(0,-1,-1,-0,92.41849,309.5474)" d="M6.09824 0C4.29132 .33879 1.35516 1.35516-.67758 2.54092V-2.54092C1.35516-1.35516 4.29132-.33879 6.09824 0"/>
<path transform="matrix(1,0,0,-1,56.985,363.828)" stroke-width="1.32874" stroke-linecap="butt" stroke-miterlimit="10" stroke-linejoin="miter" fill="none" stroke="#000000" d="M148.82074 22.67752V54.2806"/>
<path transform="matrix(0,-1,-1,-0,205.80574,309.5474)" d="M6.09824 0C4.29132 .33879 1.35516 1.35516-.67758 2.54092V-2.54092C1.35516-1.35516 4.29132-.33879 6.09824 0"/>
<path transform="matrix(1,0,0,-1,56.985,363.828)" stroke-width="1.32874" stroke-linecap="butt" stroke-miterlimit="10" stroke-linejoin="miter" fill="none" stroke="#000000" d="M148.82074 0V5.2403"/>
<path transform="matrix(0,-1,-1,-0,205.80574,358.5877)" d="M6.09824 0C4.29132 .33879 1.35516 1.35516-.67758 2.54092V-2.54092C1.35516-1.35516 4.29132-.33879 6.09824 0"/>
<path transform="matrix(1,0,0,-1,56.985,363.828)" stroke-width="1.32874" stroke-linecap="butt" stroke-miterlimit="10" stroke-linejoin="miter" fill="none" stroke="#000000" d="M21.2601 17.00824H29.76422"/>
<path transform="matrix(1,0,0,-1,56.985,363.828)" stroke-width="1.32874" stroke-linecap="butt" stroke-miterlimit="10" stroke-linejoin="miter" fill="none" stroke="#000000" d="M154.49 17.00824H162.99414"/>
<path transform="matrix(1,0,0,-1,56.985,363.828)" stroke-width="1.32874" stroke-linecap="butt" stroke-miterlimit="10" stroke-linejoin="miter" fill="none" stroke="#000000" d="M35.43349 115.65501H-15.59082C-18.72191 115.65501-21.2601 118.1932-21.2601 121.3243V163.84452C-21.2601 166.9756-18.72191 169.5138-15.59082 169.5138H-6.09824"/>
<path transform="matrix(1,0,0,-1,50.88676,194.31421)" d="M6.09824 0C4.29132 .33879 1.35516 1.35516-.67758 2.54092V-2.54092C1.35516-1.35516 4.29132-.33879 6.09824 0"/>
<path transform="matrix(1,0,0,-1,56.985,363.828)" stroke-width="1.32874" stroke-linecap="butt" stroke-miterlimit="10" stroke-linejoin="miter" fill="none" stroke="#000000" d="M35.43349 43.37057H-15.59082C-18.72191 43.37057-21.2601 45.90875-21.2601 49.03984V91.56006C-21.2601 94.69116-18.72191 97.22934-15.59082 97.22934H-6.09824"/>
<path transform="matrix(1,0,0,-1,50.88676,266.59867)" d="M6.09824 0C4.29132 .33879 1.35516 1.35516-.67758 2.54092V-2.54092C1.35516-1.35516 4.29132-.33879 6.09824 0"/>
<path transform="matrix(1,0,0,-1,56.985,363.828)" stroke-width="1.32874" stroke-linecap="butt" stroke-miterlimit="10" stroke-linejoin="miter" fill="none" stroke="#000000" d="M148.82074 43.37057H199.84508C202.97617 43.37057 205.51436 45.90875 205.51436 49.03984V102.89903C205.51436 106.03012 202.97617 108.56831 199.84508 108.56831H190.3525"/>
<path transform="matrix(-1,-0,0,1,247.3375,255.25969)" d="M6.09824 0C4.29132 .33879 1.35516 1.35516-.67758 2.54092V-2.54092C1.35516-1.35516 4.29132-.33879 6.09824 0"/>
<path transform="matrix(1,0,0,-1,56.985,363.828)" stroke-width="1.32874" stroke-linecap="butt" stroke-miterlimit="10" stroke-linejoin="miter" fill="none" stroke="#000000" d="M148.82074 126.99356H199.84508C202.97617 126.99356 205.51436 129.53176 205.51436 132.66284V175.1835C205.51436 178.31459 202.97617 180.85279 199.84508 180.85279H190.3525"/>
<path transform="matrix(-1,-0,0,1,247.3375,182.97522)" d="M6.09824 0C4.29132 .33879 1.35516 1.35516-.67758 2.54092V-2.54092C1.35516-1.35516 4.29132-.33879 6.09824 0"/>
<path transform="matrix(1,0,0,-1,56.985,363.828)" stroke-width="1.32874" stroke-linecap="butt" stroke-miterlimit="10" stroke-linejoin="miter" fill="none" stroke="#000000" d="M148.82074 199.27803H199.84508C202.97617 199.27803 205.51436 201.81621 205.51436 204.9473V247.46752C205.51436 250.5986 202.97617 253.13678 199.84508 253.13678H190.3525"/>
<path transform="matrix(-1,-0,0,1,247.3375,110.69122)" d="M6.09824 0C4.29132 .33879 1.35516 1.35516-.67758 2.54092V-2.54092C1.35516-1.35516 4.29132-.33879 6.09824 0"/>
<path transform="matrix(1,0,0,-1,56.985,363.828)" stroke-width="1.32874" stroke-linecap="butt" stroke-miterlimit="10" stroke-linejoin="miter" fill="none" stroke="#000000" d="M35.43349 49.03984H14.52765C11.39655 49.03984 8.85837 51.57802 8.85837 54.70912V54.2806"/>
<path transform="matrix(0,-1,-1,-0,65.84337,309.5474)" d="M6.09824 0C4.29132 .33879 1.35516 1.35516-.67758 2.54092V-2.54092C1.35516-1.35516 4.29132-.33879 6.09824 0"/>
<path transform="matrix(1,0,0,-1,56.985,363.828)" stroke-width="1.32874" stroke-linecap="butt" stroke-miterlimit="10" stroke-linejoin="miter" fill="none" stroke="#000000" d="M35.43349 49.03984H56.33936C59.47044 49.03984 62.00864 51.57802 62.00864 54.70912V54.2806"/>
<path transform="matrix(0,-1,-1,-0,118.99364,309.5474)" d="M6.09824 0C4.29132 .33879 1.35516 1.35516-.67758 2.54092V-2.54092C1.35516-1.35516 4.29132-.33879 6.09824 0"/>
<path transform="matrix(1,0,0,-1,56.985,363.828)" stroke-width="1.32874" stroke-linecap="butt" stroke-miterlimit="10" stroke-linejoin="miter" fill="none" stroke="#000000" d="M148.82074 49.03984H127.91489C124.78378 49.03984 122.2456 51.57802 122.2456 54.70912V54.2806"/>
<path transform="matrix(0,-1,-1,-0,179.23059,309.5474)" d="M6.09824 0C4.29132 .33879 1.35516 1.35516-.67758 2.54092V-2.54092C1.35516-1.35516 4.29132-.33879 6.09824 0"/>
<path transform="matrix(1,0,0,-1,56.985,363.828)" stroke-width="1.32874" stroke-linecap="butt" stroke-miterlimit="10" stroke-linejoin="miter" fill="none" stroke="#000000" d="M148.82074 49.03984H169.7266C172.8577 49.03984 175.39588 51.57802 175.39588 54.70912V54.2806"/>
<path transform="matrix(0,-1,-1,-0,232.38088,309.5474)" d="M6.09824 0C4.29132 .33879 1.35516 1.35516-.67758 2.54092V-2.54092C1.35516-1.35516 4.29132-.33879 6.09824 0"/>
<path transform="matrix(1,0,0,-1,56.985,363.828)" stroke-width="1.32874" stroke-linecap="butt" stroke-miterlimit="10" stroke-linejoin="miter" fill="none" stroke="#000000" d="M35.43349 176.6005V199.27803C35.43349 202.40912 37.97168 204.9473 41.10277 204.9473H86.45784C89.58893 204.9473 92.1271 202.40912 92.1271 199.27803V138.33213C92.1271 135.20104 94.6653 132.66286 97.79639 132.66286H116.57634C119.70743 132.66286 122.2456 135.20104 122.2456 138.33213V137.90358"/>
<path transform="matrix(0,-1,-1,-0,179.23059,225.92443)" d="M6.09824 0C4.29132 .33879 1.35516 1.35516-.67758 2.54092V-2.54092C1.35516-1.35516 4.29132-.33879 6.09824 0"/>
<path transform="matrix(1,0,0,-1,56.985,363.828)" stroke-width="1.32874" stroke-linecap="butt" stroke-miterlimit="10" stroke-linejoin="miter" fill="none" stroke="#000000" d="M35.43349 176.6005V199.27803C35.43349 202.40912 37.97168 204.9473 41.10277 204.9473H86.45784C89.58893 204.9473 92.1271 202.40912 92.1271 199.27803V138.33213C92.1271 135.20104 94.6653 132.66286 97.79639 132.66286H143.15146C146.28255 132.66286 148.82074 135.20104 148.82074 138.33213V137.90358"/>
<path transform="matrix(0,-1,-1,-0,205.80574,225.92443)" d="M6.09824 0C4.29132 .33879 1.35516 1.35516-.67758 2.54092V-2.54092C1.35516-1.35516 4.29132-.33879 6.09824 0"/>
<path transform="matrix(1,0,0,-1,56.985,363.828)" stroke-width="1.32874" stroke-linecap="butt" stroke-miterlimit="10" stroke-linejoin="miter" fill="none" stroke="#000000" d="M148.82074 115.65501V126.99358C148.82074 130.12467 151.35892 132.66286 154.49 132.66286H169.7266C172.8577 132.66286 175.39588 135.20104 175.39588 138.33213V137.90358"/>
<path transform="matrix(0,-1,-1,-0,232.38088,225.92443)" d="M6.09824 0C4.29132 .33879 1.35516 1.35516-.67758 2.54092V-2.54092C1.35516-1.35516 4.29132-.33879 6.09824 0"/>
<path transform="matrix(1,0,0,-1,56.985,363.828)" stroke-width="1.32874" stroke-linecap="butt" stroke-miterlimit="10" stroke-linejoin="miter" fill="none" stroke="#000000" d="M35.43349-42.5202V-31.61018"/>
<path transform="matrix(0,-1,-1,-0,92.41849,395.43818)" d="M6.09824 0C4.29132 .33879 1.35516 1.35516-.67758 2.54092V-2.54092C1.35516-1.35516 4.29132-.33879 6.09824 0"/>
<path transform="matrix(1,0,0,-1,56.985,363.828)" stroke-width="1.32874" stroke-linecap="butt" stroke-miterlimit="10" stroke-linejoin="miter" fill="none" stroke="#000000" d="M148.82074-42.5202V-31.61018"/>
<path transform="matrix(0,-1,-1,-0,205.80574,395.43818)" d="M6.09824 0C4.29132 .33879 1.35516 1.35516-.67758 2.54092V-2.54092C1.35516-1.35516 4.29132-.33879 6.09824 0"/>
<path transform="matrix(1,0,0,-1,56.985,363.828)" stroke-width="1.32874" stroke-linecap="butt" stroke-miterlimit="10" stroke-linejoin="miter" fill="none" stroke="#000000" d="M148.82074 322.58683V333.4964"/>
<path transform="matrix(0,-1,-1,-0,205.80574,30.331604)" d="M6.09824 0C4.29132 .33879 1.35516 1.35516-.67758 2.54092V-2.54092C1.35516-1.35516 4.29132-.33879 6.09824 0"/>
<use data-text="I" xlink:href="#font_0_5" transform="matrix(9.9626,0,0,-9.9626,78.419,416.728)"/>
<use data-text="n" xlink:href="#font_0_26" transform="matrix(9.9626,0,0,-9.9626,82.015499,416.728)"/>
<use data-text="p" xlink:href="#font_0_28" transform="matrix(9.9626,0,0,-9.9626,87.54474,416.728)"/>
<use data-text="u" xlink:href="#font_0_34" transform="matrix(9.9626,0,0,-9.9626,93.07398,416.728)"/>
<use data-text="t" xlink:href="#font_0_33" transform="matrix(9.9626,0,0,-9.9626,98.603229,416.728)"/>
<use data-text="s" xlink:href="#font_0_32" transform="matrix(9.9626,0,0,-9.9626,102.478679,416.728)"/>
<use data-text="O" xlink:href="#font_0_9" transform="matrix(9.9626,0,0,-9.9626,186.133,416.728)"/>
<use data-text="u" xlink:href="#font_0_34" transform="matrix(9.9626,0,0,-9.9626,193.8839,416.728)"/>
<use data-text="t" xlink:href="#font_0_33" transform="matrix(9.9626,0,0,-9.9626,199.41313,416.728)"/>
<use data-text="p" xlink:href="#font_0_28" transform="matrix(9.9626,0,0,-9.9626,203.28859,416.728)"/>
<use data-text="u" xlink:href="#font_0_34" transform="matrix(9.9626,0,0,-9.9626,208.81783,416.728)"/>
<use data-text="t" xlink:href="#font_0_33" transform="matrix(9.9626,0,0,-9.9626,214.34706,416.728)"/>
<use data-text="s" xlink:href="#font_0_32" transform="matrix(9.9626,0,0,-9.9626,218.22252,416.728)"/>
<use data-text="(" xlink:href="#font_0_29" transform="matrix(9.9626,0,0,-9.9626,175.329,427.266)"/>
<use data-text="s" xlink:href="#font_0_32" transform="matrix(9.9626,0,0,-9.9626,179.20446,427.266)"/>
<use data-text="h" xlink:href="#font_0_20" transform="matrix(9.9626,0,0,-9.9626,183.12972,427.266)"/>
<use data-text="i" xlink:href="#font_0_22" transform="matrix(9.9626,0,0,-9.9626,188.65895,427.266)"/>
<use data-text="f" xlink:href="#font_0_18" transform="matrix(9.9626,0,0,-9.9626,191.42856,427.266)"/>
<use data-text="t" xlink:href="#font_0_33" transform="matrix(9.9626,0,0,-9.9626,194.47711,427.266)"/>
<use data-text="e" xlink:href="#font_0_17" transform="matrix(9.9626,0,0,-9.9626,198.35257,427.266)"/>
<use data-text="d" xlink:href="#font_0_16" transform="matrix(9.9626,0,0,-9.9626,202.77597,427.266)"/>
<use data-text="r" xlink:href="#font_0_31" transform="matrix(9.9626,0,0,-9.9626,211.62276,427.266)"/>
<use data-text="i" xlink:href="#font_0_22" transform="matrix(9.9626,0,0,-9.9626,215.52809,427.266)"/>
<use data-text="g" xlink:href="#font_0_19" transform="matrix(9.9626,0,0,-9.9626,218.2977,427.266)"/>
<use data-text="h" xlink:href="#font_0_20" transform="matrix(9.9626,0,0,-9.9626,223.27899,427.266)"/>
<use data-text="t" xlink:href="#font_0_33" transform="matrix(9.9626,0,0,-9.9626,228.53923,427.266)"/>
<use data-text=")" xlink:href="#font_0_30" transform="matrix(9.9626,0,0,-9.9626,232.41469,427.266)"/>
<use data-text="O" xlink:href="#font_0_9" transform="matrix(9.9626,0,0,-9.9626,188.097,10.181)"/>
<use data-text="u" xlink:href="#font_0_34" transform="matrix(9.9626,0,0,-9.9626,195.8479,10.181)"/>
<use data-text="t" xlink:href="#font_0_33" transform="matrix(9.9626,0,0,-9.9626,201.37714,10.181)"/>
<use data-text="p" xlink:href="#font_0_28" transform="matrix(9.9626,0,0,-9.9626,205.2526,10.181)"/>
<use data-text="u" xlink:href="#font_0_34" transform="matrix(9.9626,0,0,-9.9626,210.78183,10.181)"/>
<use data-text="t" xlink:href="#font_0_33" transform="matrix(9.9626,0,0,-9.9626,216.31107,10.181)"/>
<use data-text="P" xlink:href="#font_0_10" transform="matrix(9.9626,0,0,-9.9626,178.303,20.718995)"/>
<use data-text="r" xlink:href="#font_0_31" transform="matrix(9.9626,0,0,-9.9626,185.07756,20.718995)"/>
<use data-text="o" xlink:href="#font_0_27" transform="matrix(9.9626,0,0,-9.9626,188.9829,20.718995)"/>
<use data-text="b" xlink:href="#font_0_14" transform="matrix(9.9626,0,0,-9.9626,193.96419,20.718995)"/>
<use data-text="a" xlink:href="#font_0_12" transform="matrix(9.9626,0,0,-9.9626,199.49343,20.718995)"/>
<use data-text="b" xlink:href="#font_0_14" transform="matrix(9.9626,0,0,-9.9626,204.47472,20.718995)"/>
<use data-text="i" xlink:href="#font_0_22" transform="matrix(9.9626,0,0,-9.9626,210.00395,20.718995)"/>
<use data-text="l" xlink:href="#font_0_24" transform="matrix(9.9626,0,0,-9.9626,212.77356,20.718995)"/>
<use data-text="i" xlink:href="#font_0_22" transform="matrix(9.9626,0,0,-9.9626,215.54317,20.718995)"/>
<use data-text="t" xlink:href="#font_0_33" transform="matrix(9.9626,0,0,-9.9626,218.31278,20.718995)"/>
<use data-text="i" xlink:href="#font_0_22" transform="matrix(9.9626,0,0,-9.9626,222.18824,20.718995)"/>
<use data-text="e" xlink:href="#font_0_17" transform="matrix(9.9626,0,0,-9.9626,224.95784,20.718995)"/>
<use data-text="s" xlink:href="#font_0_32" transform="matrix(9.9626,0,0,-9.9626,229.38124,20.718995)"/>
<use data-text="N" xlink:href="#font_1_1" transform="matrix(9.9626,0,0,-9.9626,3.3199998,256.833)"/>
<use data-text="&#x00d7;" xlink:href="#font_2_1" transform="matrix(9.9626,0,0,-9.9626,12.41,256.833)"/>
<use data-text="N" xlink:href="#font_1_1" transform="matrix(9.9626,0,0,-9.9626,278.063,215.02199)"/>
<use data-text="&#x00d7;" xlink:href="#font_2_1" transform="matrix(9.9626,0,0,-9.9626,287.154,215.02199)"/>
<use data-text="P" xlink:href="#font_0_10" transform="matrix(9.9626,0,0,-9.9626,3.8600007,344.01399)"/>
<use data-text="o" xlink:href="#font_0_27" transform="matrix(9.9626,0,0,-9.9626,10.355617,344.01399)"/>
<use data-text="s" xlink:href="#font_0_32" transform="matrix(9.9626,0,0,-9.9626,15.336917,344.01399)"/>
<use data-text="i" xlink:href="#font_0_22" transform="matrix(9.9626,0,0,-9.9626,19.26218,344.01399)"/>
<use data-text="t" xlink:href="#font_0_33" transform="matrix(9.9626,0,0,-9.9626,22.031785,344.01399)"/>
<use data-text="i" xlink:href="#font_0_22" transform="matrix(9.9626,0,0,-9.9626,25.907237,344.01399)"/>
<use data-text="o" xlink:href="#font_0_27" transform="matrix(9.9626,0,0,-9.9626,28.67684,344.01399)"/>
<use data-text="n" xlink:href="#font_0_26" transform="matrix(9.9626,0,0,-9.9626,33.65814,344.01399)"/>
<use data-text="a" xlink:href="#font_0_12" transform="matrix(9.9626,0,0,-9.9626,39.18738,344.01399)"/>
<use data-text="l" xlink:href="#font_0_24" transform="matrix(9.9626,0,0,-9.9626,44.168684,344.01399)"/>
<use data-text="E" xlink:href="#font_0_2" transform="matrix(9.9626,0,0,-9.9626,3.8600007,354.552)"/>
<use data-text="n" xlink:href="#font_0_26" transform="matrix(9.9626,0,0,-9.9626,10.634569,354.552)"/>
<use data-text="c" xlink:href="#font_0_15" transform="matrix(9.9626,0,0,-9.9626,16.16381,354.552)"/>
<use data-text="o" xlink:href="#font_0_27" transform="matrix(9.9626,0,0,-9.9626,20.587206,354.552)"/>
<use data-text="d" xlink:href="#font_0_16" transform="matrix(9.9626,0,0,-9.9626,25.84746,354.552)"/>
<use data-text="i" xlink:href="#font_0_22" transform="matrix(9.9626,0,0,-9.9626,31.376704,354.552)"/>
<use data-text="n" xlink:href="#font_0_26" transform="matrix(9.9626,0,0,-9.9626,34.146306,354.552)"/>
<use data-text="g" xlink:href="#font_0_19" transform="matrix(9.9626,0,0,-9.9626,39.67555,354.552)"/>
<use data-text="P" xlink:href="#font_0_10" transform="matrix(9.9626,0,0,-9.9626,251.843,344.01399)"/>
<use data-text="o" xlink:href="#font_0_27" transform="matrix(9.9626,0,0,-9.9626,258.33863,344.01399)"/>
<use data-text="s" xlink:href="#font_0_32" transform="matrix(9.9626,0,0,-9.9626,263.31993,344.01399)"/>
<use data-text="i" xlink:href="#font_0_22" transform="matrix(9.9626,0,0,-9.9626,267.24519,344.01399)"/>
<use data-text="t" xlink:href="#font_0_33" transform="matrix(9.9626,0,0,-9.9626,270.01478,344.01399)"/>
<use data-text="i" xlink:href="#font_0_22" transform="matrix(9.9626,0,0,-9.9626,273.89024,344.01399)"/>
<use data-text="o" xlink:href="#font_0_27" transform="matrix(9.9626,0,0,-9.9626,276.65983,344.01399)"/>
<use data-text="n" xlink:href="#font_0_26" transform="matrix(9.9626,0,0,-9.9626,281.6411,344.01399)"/>
<use data-text="a" xlink:href="#font_0_12" transform="matrix(9.9626,0,0,-9.9626,287.17036,344.01399)"/>
<use data-text="l" xlink:href="#font_0_24" transform="matrix(9.9626,0,0,-9.9626,292.15165,344.01399)"/>
<use data-text="E" xlink:href="#font_0_2" transform="matrix(9.9626,0,0,-9.9626,251.843,354.552)"/>
<use data-text="n" xlink:href="#font_0_26" transform="matrix(9.9626,0,0,-9.9626,258.61759,354.552)"/>
<use data-text="c" xlink:href="#font_0_15" transform="matrix(9.9626,0,0,-9.9626,264.14683,354.552)"/>
<use data-text="o" xlink:href="#font_0_27" transform="matrix(9.9626,0,0,-9.9626,268.57023,354.552)"/>
<use data-text="d" xlink:href="#font_0_16" transform="matrix(9.9626,0,0,-9.9626,273.83049,354.552)"/>
<use data-text="i" xlink:href="#font_0_22" transform="matrix(9.9626,0,0,-9.9626,279.3597,354.552)"/>
<use data-text="n" xlink:href="#font_0_26" transform="matrix(9.9626,0,0,-9.9626,282.1293,354.552)"/>
<use data-text="g" xlink:href="#font_0_19" transform="matrix(9.9626,0,0,-9.9626,287.65855,354.552)"/>
</svg>
